<?xml version="1.0" encoding="UTF-8"?>
<svg id="Artwork" xmlns="http://www.w3.org/2000/svg" width="182" height="64.362" version="1.1" viewBox="0 0 182 64.362">
  <!-- Generator: Adobe Illustrator 29.4.0, SVG Export Plug-In . SVG Version: 2.1.0 Build 152)  -->
  <path d="M58.372,46.83c-.078.223-1.328,4.531-4.375,8.982-2.631,3.85-5.363,7.685-9.67,7.764-4.228.08-5.59-2.51-10.422-2.51s-6.35,2.432-10.348,2.59c-4.154.156-7.322-4.162-9.973-7.996-5.428-7.844-9.568-22.162-4-31.82,2.758-4.803,7.701-7.842,13.064-7.92,4.084-.076,7.93,2.742,10.426,2.742s7.17-3.393,12.088-2.894c2.059.088,7.84.828,11.553,6.264-.295.188-6.898,4.029-6.826,12.018.086,9.562,8.385,12.742,8.482,12.781ZM41.941,10.584c2.211-2.674,3.693-6.387,3.287-10.084-3.178.117-7.027,2.115-9.303,4.785-2.045,2.363-3.838,6.145-3.352,9.766,3.541.275,7.166-1.801,9.367-4.467Z"/>
  <g>
    <path d="M76.702,15.633h7.172c3.188,0,5.279,1.78,5.279,4.495v.025c0,1.893-1.432,3.648-3.324,3.922v.05c2.552.262,4.208,2.018,4.208,4.383v.025c0,3.15-2.304,5.067-6.126,5.067h-7.209V15.633ZM79.491,17.912v5.379h3.088c2.465,0,3.797-.996,3.797-2.802v-.024c0-1.644-1.157-2.553-3.175-2.553h-3.71ZM79.491,25.445v5.877h3.848c2.502,0,3.847-1.009,3.847-2.926v-.025c0-1.93-1.369-2.926-4.034-2.926h-3.66Z"/>
    <path d="M92.054,28.993v-8.492h2.689v7.969c0,1.979.922,3.075,2.789,3.075,1.893,0,3.113-1.357,3.113-3.399v-7.645h2.702v13.099h-2.702v-1.967h-.062c-.685,1.32-2.017,2.229-4.009,2.229-2.876,0-4.521-1.855-4.521-4.869Z"/>
    <path d="M105.695,29.852l-.013-.112h2.665l.024.125c.249,1.208,1.146,1.917,2.802,1.917,1.618,0,2.59-.672,2.59-1.731v-.012c0-.847-.474-1.333-1.88-1.668l-2.142-.485c-2.49-.573-3.724-1.769-3.724-3.673v-.012c0-2.341,2.042-3.947,5.056-3.947,3.101,0,4.968,1.73,5.104,3.959l.013.149h-2.527l-.013-.087c-.162-1.146-1.059-1.942-2.577-1.942-1.444,0-2.354.685-2.354,1.731v.012c0,.81.535,1.357,1.942,1.693l2.129.486c2.678.623,3.698,1.681,3.698,3.561v.013c0,2.391-2.241,4.034-5.329,4.034-3.274,0-5.192-1.619-5.466-4.01Z"/>
    <path d="M118.712,16.94c0-.859.697-1.556,1.568-1.556.884,0,1.569.697,1.569,1.556,0,.847-.686,1.544-1.569,1.544-.871,0-1.568-.697-1.568-1.544ZM118.936,20.501h2.689v13.099h-2.689v-13.099Z"/>
    <path d="M124.657,20.501h2.689v1.979h.062c.686-1.332,2.03-2.229,4.01-2.229,2.876,0,4.532,1.855,4.532,4.868v8.479h-2.702v-7.969c0-1.967-.921-3.075-2.789-3.075-1.893,0-3.112,1.369-3.112,3.411v7.633h-2.689v-13.099Z"/>
    <path d="M138.21,27.101v-.012c0-4.097,2.365-6.836,6.038-6.836s5.927,2.64,5.927,6.574v.909h-9.275c.05,2.478,1.406,3.922,3.548,3.922,1.594,0,2.652-.822,2.988-1.806l.038-.1h2.552l-.024.137c-.424,2.08-2.44,3.972-5.615,3.972-3.848,0-6.176-2.627-6.176-6.761ZM140.937,25.831h6.574c-.225-2.266-1.494-3.374-3.25-3.374-1.743,0-3.088,1.183-3.324,3.374Z"/>
    <path d="M151.823,29.852l-.013-.112h2.664l.025.125c.249,1.208,1.146,1.917,2.802,1.917,1.618,0,2.59-.672,2.59-1.731v-.012c0-.847-.474-1.333-1.881-1.668l-2.142-.485c-2.49-.573-3.723-1.769-3.723-3.673v-.012c0-2.341,2.042-3.947,5.056-3.947,3.1,0,4.968,1.73,5.104,3.959l.013.149h-2.527l-.013-.087c-.162-1.146-1.059-1.942-2.577-1.942-1.444,0-2.354.685-2.354,1.731v.012c0,.81.535,1.357,1.942,1.693l2.129.486c2.677.623,3.698,1.681,3.698,3.561v.013c0,2.391-2.241,4.034-5.329,4.034-3.274,0-5.192-1.619-5.466-4.01Z"/>
    <path d="M164.264,29.852l-.013-.112h2.665l.024.125c.249,1.208,1.146,1.917,2.802,1.917,1.618,0,2.59-.672,2.59-1.731v-.012c0-.847-.474-1.333-1.88-1.668l-2.142-.485c-2.49-.573-3.724-1.769-3.724-3.673v-.012c0-2.341,2.042-3.947,5.056-3.947,3.101,0,4.968,1.73,5.104,3.959l.013.149h-2.527l-.013-.087c-.162-1.146-1.059-1.942-2.577-1.942-1.444,0-2.354.685-2.354,1.731v.012c0,.81.535,1.357,1.942,1.693l2.129.486c2.678.623,3.698,1.681,3.698,3.561v.013c0,2.391-2.241,4.034-5.329,4.034-3.274,0-5.192-1.619-5.466-4.01Z"/>
    <path d="M76.702,45.633h6.686c3.524,0,5.965,2.365,5.965,5.889v.025c0,3.511-2.44,5.914-5.965,5.914h-3.896v6.139h-2.789v-17.967ZM79.491,47.986v7.134h3.199c2.429,0,3.823-1.307,3.823-3.561v-.025c0-2.241-1.395-3.548-3.823-3.548h-3.199Z"/>
    <path d="M90.168,59.877v-.025c0-2.278,1.768-3.673,4.868-3.859l3.561-.212v-.983c0-1.444-.934-2.316-2.602-2.316-1.557,0-2.516.735-2.739,1.781l-.025.112h-2.54l.013-.137c.187-2.254,2.142-3.984,5.366-3.984,3.2,0,5.229,1.693,5.229,4.32v9.027h-2.702v-2.067h-.05c-.759,1.407-2.278,2.303-4.009,2.303-2.615,0-4.37-1.606-4.37-3.959ZM95.273,61.683c1.893,0,3.324-1.283,3.324-2.988v-1.021l-3.199.199c-1.619.1-2.516.81-2.516,1.917v.025c0,1.146.946,1.868,2.391,1.868Z"/>
    <path d="M104.156,50.501h2.689v2.241h.062c.423-1.531,1.519-2.49,3.013-2.49.386,0,.723.062.934.1v2.503c-.211-.087-.685-.149-1.207-.149-1.731,0-2.802,1.133-2.802,3.088v7.807h-2.689v-13.099Z"/>
    <path d="M114.111,60.151v-7.508h-1.88v-2.142h1.88v-3.412h2.752v3.412h2.453v2.142h-2.453v7.346c0,1.333.598,1.731,1.73,1.731.287,0,.523-.025.723-.05v2.079c-.312.05-.822.112-1.37.112-2.59,0-3.835-1.096-3.835-3.711Z"/>
    <path d="M121.786,50.501h2.689v1.979h.062c.685-1.332,2.029-2.229,4.01-2.229,2.876,0,4.532,1.855,4.532,4.868v8.479h-2.702v-7.969c0-1.967-.922-3.075-2.789-3.075-1.893,0-3.113,1.369-3.113,3.411v7.633h-2.689v-13.099Z"/>
    <path d="M135.084,57.101v-.012c0-4.097,2.366-6.836,6.039-6.836s5.927,2.64,5.927,6.574v.909h-9.276c.05,2.478,1.407,3.922,3.549,3.922,1.594,0,2.652-.822,2.988-1.806l.037-.1h2.553l-.024.137c-.424,2.08-2.44,3.972-5.616,3.972-3.847,0-6.176-2.627-6.176-6.761ZM137.812,55.831h6.574c-.225-2.266-1.494-3.374-3.25-3.374-1.743,0-3.088,1.183-3.324,3.374Z"/>
    <path d="M149.385,50.501h2.689v2.241h.062c.424-1.531,1.52-2.49,3.014-2.49.386,0,.722.062.934.1v2.503c-.212-.087-.685-.149-1.208-.149-1.73,0-2.801,1.133-2.801,3.088v7.807h-2.689v-13.099Z"/>
  </g>
</svg>