<svg width="320" height="224" viewBox="0 0 320 224" fill="none" xmlns="http://www.w3.org/2000/svg">
<rect width="320" height="224" rx="16" fill="#F5F5F5"/>
<path d="M150.445 62.9976L149.925 63.3118C149.099 63.8118 148.32 64.3708 147.593 64.9816L149.092 63.9274H161.812L164.125 81.4377L152.562 93.0002L141 101.037V110.304C141 116.777 144.383 122.779 149.92 126.131L162.093 133.499L136.375 148.501H131.415L122.17 142.905C116.633 139.553 113.25 133.551 113.25 127.078V95.9153C113.25 89.4406 116.635 83.4369 122.175 80.0858L149.925 63.3005C150.097 63.1965 150.27 63.0955 150.445 62.9976Z" fill="url(#paint0_radial_232_954)"/>
<path d="M150.445 62.9976L149.925 63.3118C149.099 63.8118 148.32 64.3708 147.593 64.9816L149.092 63.9274H161.812L164.125 81.4377L152.562 93.0002L141 101.037V110.304C141 116.777 144.383 122.779 149.92 126.131L162.093 133.499L136.375 148.501H131.415L122.17 142.905C116.633 139.553 113.25 133.551 113.25 127.078V95.9153C113.25 89.4406 116.635 83.4369 122.175 80.0858L149.925 63.3005C150.097 63.1965 150.27 63.0955 150.445 62.9976Z" fill="url(#paint1_linear_232_954)"/>
<path d="M178 99.9375V110.298C178 116.771 174.617 122.773 169.08 126.125L141.33 142.922C135.653 146.358 128.59 146.482 122.813 143.294L149.92 159.702C155.809 163.266 163.191 163.266 169.08 159.702L196.83 142.904C202.367 139.553 205.75 133.551 205.75 127.078V119.594L203.437 116.125L178 99.9375Z" fill="url(#paint2_radial_232_954)"/>
<path d="M178 99.9375V110.298C178 116.771 174.617 122.773 169.08 126.125L141.33 142.922C135.653 146.358 128.59 146.482 122.813 143.294L149.92 159.702C155.809 163.266 163.191 163.266 169.08 159.702L196.83 142.904C202.367 139.553 205.75 133.551 205.75 127.078V119.594L203.437 116.125L178 99.9375Z" fill="url(#paint3_linear_232_954)"/>
<path d="M196.825 80.0853L169.075 63.2999C163.371 59.8495 156.267 59.7426 150.476 62.9793L149.925 63.3127C144.385 66.6638 141 72.6674 141 79.1422V101.074L149.925 95.675C155.812 92.1144 163.188 92.1144 169.075 95.675L196.825 112.46C202.192 115.707 205.536 121.442 205.74 127.684C205.747 127.482 205.75 127.28 205.75 127.078V95.9148C205.75 89.44 202.365 83.4363 196.825 80.0853Z" fill="url(#paint4_radial_232_954)"/>
<path d="M196.825 80.0853L169.075 63.2999C163.371 59.8495 156.267 59.7426 150.476 62.9793L149.925 63.3127C144.385 66.6638 141 72.6674 141 79.1422V101.074L149.925 95.675C155.812 92.1144 163.188 92.1144 169.075 95.675L196.825 112.46C202.192 115.707 205.536 121.442 205.74 127.684C205.747 127.482 205.75 127.28 205.75 127.078V95.9148C205.75 89.44 202.365 83.4363 196.825 80.0853Z" fill="url(#paint5_linear_232_954)"/>
<defs>
<radialGradient id="paint0_radial_232_954" cx="0" cy="0" r="1" gradientUnits="userSpaceOnUse" gradientTransform="translate(144.281 80.6013) rotate(110.528) scale(77.1582 134.58)">
<stop offset="0.06441" stop-color="#AE7FE2"/>
<stop offset="1" stop-color="#0078D4"/>
</radialGradient>
<linearGradient id="paint1_linear_232_954" x1="144.496" y1="143.571" x2="133.487" y2="124.53" gradientUnits="userSpaceOnUse">
<stop stop-color="#114A8B"/>
<stop offset="1" stop-color="#0078D4" stop-opacity="0"/>
</linearGradient>
<radialGradient id="paint2_radial_232_954" cx="0" cy="0" r="1" gradientUnits="userSpaceOnUse" gradientTransform="translate(128.119 140.062) rotate(-8.36717) scale(71.8038 47.4312)">
<stop offset="0.133928" stop-color="#D59DFF"/>
<stop offset="1" stop-color="#5E438F"/>
</radialGradient>
<linearGradient id="paint3_linear_232_954" x1="197.325" y1="114.684" x2="185.528" y2="131.599" gradientUnits="userSpaceOnUse">
<stop stop-color="#493474"/>
<stop offset="1" stop-color="#8C66BA" stop-opacity="0"/>
</linearGradient>
<radialGradient id="paint4_radial_232_954" cx="0" cy="0" r="1" gradientUnits="userSpaceOnUse" gradientTransform="translate(198.94 117.29) rotate(-165.772) scale(57.634 97.0214)">
<stop offset="0.0584996" stop-color="#50E6FF"/>
<stop offset="1" stop-color="#436DCD"/>
</radialGradient>
<linearGradient id="paint5_linear_232_954" x1="143.257" y1="63.0681" x2="160.626" y2="63.0681" gradientUnits="userSpaceOnUse">
<stop stop-color="#2D3F80"/>
<stop offset="1" stop-color="#436DCD" stop-opacity="0"/>
</linearGradient>
</defs>
</svg>
