<svg width="396" height="396" viewBox="0 0 396 396" fill="none" xmlns="http://www.w3.org/2000/svg">
<path d="M393 302.01V39C393 19.2 376.8 3 357 3H87.79L3 55.74V302.01H393Z" fill="black"/>
<path d="M393 393V304.01H3V357C3 376.8 19.2 393 39 393H393Z" fill="#86290E"/>
<path d="M393 302.01H3V304.01H393V302.01Z" fill="white"/>
<path d="M218.1 303.01L198 290.51L177.9 303.01L198 315.51L218.1 303.01Z" fill="white"/>
<path d="M330.35 92.0399H65.65V94.0399H330.35V92.0399Z" fill="white"/>
<path d="M330.35 41.4299H322.52L313.13 51.9099V41.4299H306.55L306.58 67.2299H313.13V57.4299L322.03 67.2299H330.35L318.35 54.4999L330.35 41.4299Z" fill="white"/>
<path d="M295.94 52.04L289.94 51.36C286.42 50.97 285.55 50.1 285.55 48.91C285.55 47.59 287.36 46.39 290.87 46.39C294.38 46.39 296.03 47.65 296.35 49.55H302.8C302.48 44.1 297.9 40.71 291.22 40.71C283.29 40.71 279.29 43.87 279.29 49.45C279.29 54 281.93 56.13 287.42 56.71L293.52 57.36C295.84 57.62 296.91 58.52 296.91 59.68C296.91 61 295.36 62.2 291.62 62.2C287.3 62.2 285.56 61.1 285.27 58.91H278.95C279.24 64.84 283.11 67.88 291.4 67.88C298.98 67.88 303.2 64.56 303.2 59.56C303.2 55.21 300.68 52.59 295.94 52.05V52.04Z" fill="white"/>
<path d="M255.27 67.2299H276.04V61.6599H261.85V56.9799H273.27V51.3699H261.85V47.0099H276.04V41.4299H255.27V67.2299Z" fill="white"/>
<path d="M239.79 41.4299H227.73V67.2299H239.79C249.05 67.2299 251.59 63.7799 251.59 54.1399C251.59 45.0799 249.14 41.4299 239.79 41.4299ZM239.53 61.6499H234.31V47.0099H239.53C243.66 47.0099 244.88 48.1399 244.88 54.1399C244.88 59.6199 243.49 61.6499 239.53 61.6499Z" fill="white"/>
<path d="M209.86 40.72C200.47 40.72 195.6 46.49 195.6 54.27C195.6 62.05 200.47 67.88 209.86 67.88C219.25 67.88 224.15 62.07 224.15 54.27C224.15 46.47 219.28 40.72 209.86 40.72ZM209.86 62.07C204.99 62.07 202.31 59.1 202.31 54.26C202.31 49.42 204.99 46.52 209.86 46.52C214.73 46.52 217.41 49.52 217.41 54.26C217.41 59 214.77 62.07 209.86 62.07Z" fill="white"/>
<path d="M171.35 47.0099H179.67V67.2299H186.25V47.0099H194.54V41.4299H171.35V47.0099Z" fill="white"/>
<path d="M161.77 57.3699C161.77 60.7199 159.71 62.0799 156.19 62.0799C152.67 62.0799 150.55 60.6599 150.55 57.3699V41.4399H143.97V58.1099C143.97 65.5599 150.61 67.8799 156.19 67.8799C161.77 67.8799 168.35 65.5599 168.35 58.1099V41.4399H161.77V57.3699Z" fill="white"/>
<path d="M124.71 41.4299L114.81 67.2299H121.62L123.35 62.3899H134.4L136.1 67.2299H143.13L133.1 41.4299H124.71ZM125.3 56.9099L128.91 46.7999L132.46 56.9099H125.29H125.3Z" fill="white"/>
<path d="M65.85 67.2399L88.96 52.8699H100.95C101.32 52.8699 101.65 53.1599 101.65 53.5699C101.65 53.8999 101.5 54.0499 101.32 54.1599L89.97 60.9599C89.23 61.3999 88.97 62.2899 88.97 62.9499V67.2399H103.38V42.3199C103.38 41.8399 103.01 41.4299 102.46 41.4299H88.7L65.65 55.7399V67.2399H65.85Z" fill="white"/>
<path d="M132.83 174.82V176.34C132.83 180.41 128.72 183.22 122.4 183.22H113.3V157.32H122.29C128.25 157.32 131.99 159.73 131.99 163.8V165.47C131.99 168.06 130.03 169.24 128.66 169.69H128.62C130.21 170.06 132.84 171.47 132.84 174.83L132.83 174.82ZM119.77 161.57V168.12H122.47C124.36 168.12 125.5 167.27 125.5 165.57V164.24C125.5 162.39 124.32 161.58 122.1 161.58H119.77V161.57ZM126.36 174.63C126.36 172.96 125.25 171.97 122.77 171.97H119.77V178.96H122.29C124.77 178.96 126.36 178.04 126.36 175.89V174.63Z" fill="white"/>
<path d="M157.71 174.82C157.71 180 154.27 183.81 147.16 183.81C140.05 183.81 136.58 180 136.58 174.82V157.32H143.06V174.79C143.06 177.49 144.28 179.19 147.17 179.19C150.06 179.19 151.24 177.49 151.24 174.79V157.32H157.72V174.82H157.71Z" fill="white"/>
<path d="M171.34 161.95V178.56H174.67V183.22H161.57V178.56H164.86V161.95H161.57V157.32H174.67V161.95H171.34Z" fill="white"/>
<path d="M195.11 178.3V183.22H178.9V157.32H185.38V178.3H195.11Z" fill="white"/>
<path d="M218.77 167.65V172.42C218.77 179.08 214.7 183.22 207 183.22H198.53V157.32H207.89C215.14 157.32 218.77 161.46 218.77 167.64V167.65ZM212.29 167.43C212.29 163.8 210.81 161.99 207.7 161.99H205V178.57H207.15C210.59 178.57 212.29 176.72 212.29 172.61V167.43Z" fill="white"/>
<path d="M231.61 161.95V178.56H234.94V183.22H221.84V178.56H225.14V161.95H221.84V157.32H234.94V161.95H231.61Z" fill="white"/>
<path d="M260.12 157.32V183.22H253.13L244.69 165.35V183.22H239.18V157.32H246.76L254.61 173.38V157.32H260.12Z" fill="white"/>
<path d="M285.82 168.42V183.22H281.01L280.53 181.37C278.94 182.78 276.72 183.81 273.94 183.81C268.83 183.81 264.73 180.26 264.73 174.56V167.12C264.73 160.87 268.95 156.72 275.98 156.72C280.38 156.72 283.57 158.2 285.64 161.05L281.61 163.86C280.24 162.27 278.69 161.34 276.32 161.34C272.95 161.34 271.21 163.15 271.21 166.52V174.62C271.21 177.43 272.62 179.17 275.35 179.17C277.31 179.17 278.72 178.32 279.64 177.21L279.68 172.7H275.35V168.41H285.82V168.42Z" fill="white"/>
<path d="M79.3299 221.56H71.5599L70.1199 227.22H63.6799L71.0799 201.32H79.6999L87.5099 227.22H80.9199L79.3299 221.56ZM75.3699 205.58L72.7399 216.75H78.0699L75.3699 205.58Z" fill="white"/>
<path d="M99.77 217.57H97.33V227.23H90.85V201.33H100.66C106.28 201.33 110.1 203.99 110.1 208.32V210.43C110.1 213.09 108.44 215.09 105.81 216.31L111.55 227.23H104.56L99.79 217.57H99.77ZM97.33 213.24H100.18C102.29 213.24 103.62 212.2 103.62 210.35V208.72C103.62 206.65 102.25 205.65 100.22 205.65H97.33V213.24Z" fill="white"/>
<path d="M113.87 217.86V211.2C113.87 204.76 117.98 200.73 124.86 200.73C128.78 200.73 131.23 201.95 133.33 203.73L130.22 207.17C128.74 206.02 127.22 205.36 125.11 205.36C122.08 205.36 120.34 207.1 120.34 210.43V217.98C120.34 221.5 121.89 223.2 125.04 223.2C127.37 223.2 129.18 222.31 130.63 221.31L133.18 224.83C131.33 226.38 128.33 227.83 124.74 227.83C117.86 227.83 113.86 223.91 113.86 217.88L113.87 217.86Z" fill="white"/>
<path d="M157.78 227.22H151.31V216.49H143.35V227.22H136.88V201.32H143.35V211.5H151.31V201.32H157.78V227.22Z" fill="white"/>
<path d="M171.84 205.95V222.56H175.17V227.22H162.07V222.56H165.37V205.95H162.07V201.32H175.17V205.95H171.84Z" fill="white"/>
<path d="M197.97 205.99H191.2V227.22H184.72V205.99H177.88V201.32H197.97V205.99Z" fill="white"/>
<path d="M207.85 205.99V211.79H216.73V216.42H207.85V222.45H217.5V227.22H201.37V201.32H217.5V205.99H207.85Z" fill="white"/>
<path d="M220.88 217.86V211.2C220.88 204.76 224.99 200.73 231.87 200.73C235.79 200.73 238.23 201.95 240.34 203.73L237.23 207.17C235.75 206.02 234.23 205.36 232.12 205.36C229.09 205.36 227.35 207.1 227.35 210.43V217.98C227.35 221.5 228.9 223.2 232.05 223.2C234.38 223.2 236.19 222.31 237.64 221.31L240.19 224.83C238.34 226.38 235.34 227.83 231.75 227.83C224.87 227.83 220.87 223.91 220.87 217.88L220.88 217.86Z" fill="white"/>
<path d="M262.57 205.99H255.8V227.22H249.33V205.99H242.48V201.32H262.57V205.99Z" fill="white"/>
<path d="M286.78 218.82C286.78 224 283.34 227.81 276.23 227.81C269.12 227.81 265.65 224 265.65 218.82V201.32H272.12V218.79C272.12 221.49 273.34 223.19 276.23 223.19C279.12 223.19 280.3 221.49 280.3 218.79V201.32H286.78V218.82Z" fill="white"/>
<path d="M300.77 217.57H298.33V227.23H291.86V201.33H301.67C307.29 201.33 311.11 203.99 311.11 208.32V210.43C311.11 213.09 309.45 215.09 306.82 216.31L312.56 227.23H305.57L300.8 217.57H300.77ZM298.33 213.24H301.18C303.29 213.24 304.62 212.2 304.62 210.35V208.72C304.62 206.65 303.25 205.65 301.22 205.65H298.33V213.24Z" fill="white"/>
<path d="M322.66 205.99V211.79H331.54V216.42H322.66V222.45H332.32V227.22H316.19V201.32H332.32V205.99H322.66Z" fill="white"/>
<path d="M319.27 350.1C319.27 355.4 316.84 357.95 311.98 357.95H308.83V337.79H312.69C317.11 337.79 319.26 340.42 319.26 344.96V350.1H319.27ZM312.94 333.92H303.82V361.81H311.95C320 361.81 324.3 357.27 324.3 350.02V345.08C324.3 338.39 320.51 333.92 312.95 333.92H312.94ZM296.13 337.78V333.92H279.84V361.81H296.13V357.91H284.86V349.58H295.26V345.72H284.86V337.79H296.13V337.78ZM272.94 333.92H254.37V337.78H267.52L253.81 357.98V361.8H273.29V357.78H259.23L272.94 337.58V333.91V333.92ZM248.48 337.78V333.92H236.29V337.78H239.88V357.94H236.29V361.8H248.48V357.94H244.89V337.78H248.48ZM221.03 357.74V333.92H216.01V361.81H232.34V357.75H221.03V357.74ZM198.04 337.42L201.75 350.45H194.42L198.05 337.42H198.04ZM205.25 361.8H210.43L201.47 333.91H194.66L186.13 361.8H191.19L193.3 354.47H202.94L205.25 361.8ZM181.98 337.78V333.92H169.79V337.78H173.38V357.94H169.79V361.8H181.98V357.94H178.39V337.78H181.98ZM156.64 362.32C160.31 362.32 163.29 360.89 165.17 359.41L163.06 356.42C161.47 357.5 159.51 358.45 156.77 358.45C152.71 358.45 150.67 356.14 150.67 351.76V344.23C150.67 339.77 152.94 337.26 157 337.26C159.55 337.26 161.26 338.14 162.86 339.29L165.41 336.42C163.26 334.71 160.79 333.39 156.84 333.39C149.87 333.39 145.64 337.69 145.64 344.51V351.84C145.64 358.13 149.62 362.32 156.64 362.32ZM139.51 337.78V333.92H123.22V361.81H139.51V357.91H128.24V349.58H138.64V345.72H128.24V337.79H139.51V337.78ZM111.78 343.92C111.78 347.11 109.63 348.42 106.04 348.42H102.69V337.74H106.63C109.78 337.74 111.77 339.09 111.77 342.12V343.91L111.78 343.92ZM106.88 333.92H97.6799V361.81H102.7V352.25H106.21C112.58 352.25 116.81 349.3 116.81 344.2V341.89C116.81 336.75 112.91 333.92 106.89 333.92H106.88ZM79.8299 362.33C86.0799 362.33 90.4699 359.18 90.4699 354.48V353.4C90.4699 349.14 87.5599 347.11 83.7399 345.91L80.0299 344.71C76.8399 343.71 75.5699 342.56 75.5699 341.16V340.48C75.5699 338.93 77.0799 337.21 80.7099 337.21C83.4999 337.21 85.2899 337.85 87.8399 339.76L90.3099 337.01C87.7999 334.7 84.7299 333.38 80.5099 333.38C74.1399 333.38 70.5499 336.73 70.5499 340.51V341.43C70.5499 344.5 72.4199 346.97 77.1199 348.48L81.2199 349.83C84.5299 350.91 85.4799 351.9 85.4799 353.89V354.41C85.4799 356.28 83.6899 358.31 79.5799 358.31C75.7899 358.31 74.2399 357.23 71.8899 355.68L69.3799 358.67C71.5699 360.7 74.7599 362.3 79.8199 362.3L79.8299 362.33Z" fill="white"/>
</svg>
