<svg width="396" height="396" viewBox="0 0 396 396" fill="none" xmlns="http://www.w3.org/2000/svg">
<path d="M393 302.01V39C393 19.2 376.8 3 357 3H87.79L3 55.74V302.01H393Z" fill="black"/>
<path d="M393 393V304.01H3V357C3 376.8 19.2 393 39 393H393Z" fill="#17663E"/>
<path d="M393 302.01H3V304.01H393V302.01Z" fill="white"/>
<path d="M218.099 303.01L197.999 290.51L177.899 303.01L197.999 315.51L218.099 303.01Z" fill="white"/>
<path d="M330.35 92.04H65.6499V94.04H330.35V92.04Z" fill="white"/>
<path d="M330.35 41.43H322.52L313.13 51.91V41.43H306.55L306.58 67.24H313.13V57.43L322.03 67.24H330.35L318.35 54.5L330.35 41.43Z" fill="white"/>
<path d="M295.94 52.04L289.94 51.36C286.42 50.97 285.55 50.1 285.55 48.91C285.55 47.59 287.36 46.39 290.87 46.39C294.38 46.39 296.03 47.65 296.35 49.55H302.8C302.48 44.1 297.9 40.71 291.22 40.71C283.29 40.71 279.29 43.87 279.29 49.45C279.29 54 281.93 56.13 287.42 56.71L293.52 57.36C295.84 57.62 296.91 58.52 296.91 59.68C296.91 61 295.36 62.2 291.62 62.2C287.3 62.2 285.56 61.1 285.27 58.91H278.95C279.24 64.84 283.11 67.88 291.4 67.88C298.98 67.88 303.2 64.56 303.2 59.56C303.2 55.21 300.68 52.59 295.94 52.05V52.04Z" fill="white"/>
<path d="M255.27 67.24H276.04V61.66H261.85V56.98H273.27V51.37H261.85V47.01H276.04V41.43H255.27V67.24Z" fill="white"/>
<path d="M239.79 41.43H227.73V67.23H239.79C249.05 67.23 251.59 63.78 251.59 54.14C251.59 45.08 249.14 41.43 239.79 41.43ZM239.53 61.65H234.31V47.01H239.53C243.66 47.01 244.88 48.14 244.88 54.14C244.88 59.62 243.49 61.65 239.53 61.65Z" fill="white"/>
<path d="M209.86 40.72C200.47 40.72 195.6 46.49 195.6 54.27C195.6 62.05 200.47 67.88 209.86 67.88C219.25 67.88 224.15 62.07 224.15 54.27C224.15 46.47 219.28 40.72 209.86 40.72ZM209.86 62.07C204.99 62.07 202.31 59.1 202.31 54.26C202.31 49.42 204.99 46.52 209.86 46.52C214.73 46.52 217.41 49.52 217.41 54.26C217.41 59 214.77 62.07 209.86 62.07Z" fill="white"/>
<path d="M171.35 47.01H179.67V67.24H186.25V47.01H194.54V41.43H171.35V47.01Z" fill="white"/>
<path d="M161.77 57.37C161.77 60.72 159.71 62.08 156.19 62.08C152.67 62.08 150.55 60.66 150.55 57.37V41.44H143.97V58.11C143.97 65.56 150.61 67.88 156.19 67.88C161.77 67.88 168.35 65.56 168.35 58.11V41.44H161.77V57.37Z" fill="white"/>
<path d="M124.71 41.43L114.81 67.23H121.62L123.35 62.39H134.4L136.1 67.23H143.13L133.1 41.43H124.71ZM125.3 56.91L128.91 46.8L132.46 56.91H125.29H125.3Z" fill="white"/>
<path d="M65.8499 67.24L88.9599 52.87H100.95C101.32 52.87 101.65 53.16 101.65 53.57C101.65 53.9 101.5 54.05 101.32 54.16L89.9699 60.96C89.2299 61.4 88.9699 62.29 88.9699 62.95V67.24H103.38V42.32C103.38 41.84 103.01 41.43 102.46 41.43H88.6999L65.6499 55.74V67.24H65.8499Z" fill="white"/>
<path d="M148.74 135.32V161.22H142.63V144.65L138.64 157.49L138.67 157.52H132.49L128.42 144.28V161.22H122.65V135.32H130.79L135.71 151.94L140.89 135.4L140.86 135.32H148.74Z" fill="white"/>
<path d="M160.66 139.99V145.79H169.54V150.42H160.66V156.45H170.32V161.22H154.18V135.32H170.32V139.99H160.66Z" fill="white"/>
<path d="M195.15 145.65V150.42C195.15 157.08 191.08 161.22 183.38 161.22H174.91V135.32H184.27C191.52 135.32 195.15 139.46 195.15 145.64V145.65ZM188.68 145.43C188.68 141.8 187.2 139.99 184.09 139.99H181.39V156.57H183.54C186.98 156.57 188.68 154.72 188.68 150.61V145.43Z" fill="white"/>
<path d="M208 139.95V156.56H211.33V161.22H198.23V156.56H201.52V139.95H198.23V135.32H211.33V139.95H208Z" fill="white"/>
<path d="M229.609 155.56H221.839L220.399 161.22H213.959L221.359 135.32H229.979L237.789 161.22H231.199L229.609 155.56ZM225.649 139.58L223.019 150.75H228.349L225.649 139.58Z" fill="white"/>
<path d="M267.35 161.22L265.43 159.3C263.17 161.15 261.06 161.82 257.73 161.82C251.99 161.82 247.96 159.01 247.96 154.64V152.98C247.96 150.02 249.66 147.91 252.81 146.5C251.15 144.8 250.07 143.5 250.07 141.62V140.36C250.07 136.77 253.4 134.74 258.28 134.74C263.68 134.74 266.31 137.26 266.31 140.36V141.54C266.31 144.28 264.72 145.98 260.87 147.79L265.05 152.05L267.9 146.8L272.3 148.95L268.56 155.65L274.07 161.24H267.34L267.35 161.22ZM257.99 157.3C259.69 157.3 260.91 156.86 262.06 155.89L256.14 149.9C254.99 150.64 254.36 151.53 254.36 153.08V154.04C254.36 156.11 255.77 157.3 257.99 157.3ZM255.73 141.32C255.73 142.39 256.28 143.13 257.73 144.61C259.99 143.65 260.76 142.61 260.76 141.28V140.72C260.76 139.46 259.84 138.68 258.28 138.68C256.72 138.68 255.73 139.42 255.73 140.72V141.31V141.32Z" fill="white"/>
<path d="M55.8801 183.99V189.79H64.7602V194.42H55.8801V200.45H65.5402V205.22H49.4102V179.32H65.5402V183.99H55.8801Z" fill="white"/>
<path d="M91.0801 179.32V205.22H84.0901L75.6501 187.35V205.22H70.1401V179.32H77.7201L85.5701 195.38V179.32H91.0801Z" fill="white"/>
<path d="M114.559 183.99H107.779V205.22H101.309V183.99H94.4595V179.32H114.559V183.99Z" fill="white"/>
<path d="M124.43 183.99V189.79H133.31V194.42H124.43V200.45H134.09V205.22H117.96V179.32H134.09V183.99H124.43Z" fill="white"/>
<path d="M147.6 195.57H145.16V205.23H138.69V179.33H148.49C154.11 179.33 157.93 181.99 157.93 186.32V188.43C157.93 191.09 156.27 193.09 153.64 194.31L159.37 205.23H152.38L147.61 195.57H147.6ZM145.16 191.24H148.01C150.12 191.24 151.45 190.2 151.45 188.35V186.72C151.45 184.65 150.08 183.65 148.05 183.65H145.16V191.24Z" fill="white"/>
<path d="M180.84 183.99H174.07V205.22H167.6V183.99H160.75V179.32H180.84V183.99Z" fill="white"/>
<path d="M195.34 199.56H187.57L186.13 205.22H179.69L187.09 179.32H195.71L203.52 205.22H196.93L195.34 199.56ZM191.38 183.58L188.75 194.75H194.08L191.38 183.58Z" fill="white"/>
<path d="M216 183.95V200.56H219.33V205.22H206.23V200.56H209.52V183.95H206.23V179.32H219.33V183.95H216Z" fill="white"/>
<path d="M244.51 179.32V205.22H237.51L229.08 187.35V205.22H223.56V179.32H231.15L238.99 195.38V179.32H244.51Z" fill="white"/>
<path d="M276 179.32V205.22H269.89V188.65L265.9 201.49L265.93 201.52H259.76L255.69 188.28V205.22H249.91V179.32H258.05L262.97 195.94L268.16 179.4L268.12 179.32H276Z" fill="white"/>
<path d="M287.92 183.99V189.79H296.8V194.42H287.92V200.45H297.58V205.22H281.45V179.32H297.58V183.99H287.92Z" fill="white"/>
<path d="M323.12 179.32V205.22H316.12L307.69 187.35V205.22H302.18V179.32H309.76L317.61 195.38V179.32H323.12Z" fill="white"/>
<path d="M346.59 183.99H339.82V205.22H333.35V183.99H326.5V179.32H346.59V183.99Z" fill="white"/>
<path d="M116.39 227.95V244.56H119.72V249.22H106.62V244.56H109.91V227.95H106.62V223.32H119.72V227.95H116.39Z" fill="white"/>
<path d="M144.9 223.32V249.22H137.9L129.47 231.35V249.22H123.95V223.32H131.54L139.38 239.38V223.32H144.9Z" fill="white"/>
<path d="M170.55 233.65V238.42C170.55 245.08 166.48 249.22 158.78 249.22H150.31V223.32H159.67C166.92 223.32 170.55 227.46 170.55 233.64V233.65ZM164.07 233.43C164.07 229.8 162.59 227.99 159.48 227.99H156.78V244.57H158.93C162.37 244.57 164.07 242.72 164.07 238.61V233.43Z" fill="white"/>
<path d="M195.72 240.82C195.72 246 192.28 249.81 185.17 249.81C178.06 249.81 174.59 246 174.59 240.82V223.32H181.07V240.78C181.07 243.48 182.29 245.18 185.18 245.18C188.07 245.18 189.25 243.48 189.25 240.78V223.32H195.73V240.82H195.72Z" fill="white"/>
<path d="M198.38 246.26L201.3 242.71C203.52 244.23 205.11 245.12 208.26 245.12C211.41 245.12 212.81 243.75 212.81 242.2V241.76C212.81 240.32 212.11 239.54 209.37 238.61L205.85 237.43C201.48 235.99 199.49 233.73 199.49 230.73V229.77C199.49 225.66 203.3 222.74 209.3 222.74C213.48 222.74 216.52 224.11 218.85 226.14L215.93 229.51C213.6 227.81 211.97 227.25 209.86 227.25C207.31 227.25 205.94 228.32 205.94 229.54V230.02C205.94 231.09 206.83 231.8 209.64 232.72L213.16 233.9C216.64 235.08 219.19 237.23 219.19 241.04V242.15C219.19 246.92 214.64 249.81 208.9 249.81C203.83 249.81 200.57 248.26 198.39 246.26H198.38Z" fill="white"/>
<path d="M241.64 227.99H234.87V249.22H228.39V227.99H221.55V223.32H241.64V227.99Z" fill="white"/>
<path d="M253.96 239.57H251.52V249.23H245.05V223.33H254.86C260.48 223.33 264.3 225.99 264.3 230.32V232.43C264.3 235.09 262.64 237.09 260.01 238.31L265.75 249.23H258.76L253.99 239.57H253.96ZM251.52 235.24H254.37C256.48 235.24 257.81 234.2 257.81 232.35V230.72C257.81 228.65 256.44 227.65 254.41 227.65H251.52V235.23V235.24Z" fill="white"/>
<path d="M280.39 238.9V249.22H273.91V238.94L265.74 223.32H272.54L277.28 234.24L281.98 223.32H288.53L280.39 238.9Z" fill="white"/>
<path d="M319.27 350.1C319.27 355.4 316.84 357.95 311.98 357.95H308.83V337.79H312.69C317.11 337.79 319.26 340.42 319.26 344.96V350.1H319.27ZM312.94 333.92H303.82V361.81H311.95C320 361.81 324.3 357.27 324.3 350.02V345.08C324.3 338.39 320.51 333.92 312.95 333.92H312.94ZM296.13 337.78V333.92H279.84V361.81H296.13V357.91H284.86V349.58H295.26V345.72H284.86V337.79H296.13V337.78ZM272.94 333.92H254.37V337.78H267.52L253.81 357.98V361.8H273.29V357.78H259.23L272.94 337.58V333.91V333.92ZM248.48 337.78V333.92H236.29V337.78H239.88V357.94H236.29V361.8H248.48V357.94H244.89V337.78H248.48ZM221.03 357.74V333.92H216.01V361.81H232.34V357.75H221.03V357.74ZM198.04 337.42L201.75 350.45H194.42L198.05 337.42H198.04ZM205.25 361.8H210.43L201.47 333.91H194.66L186.13 361.8H191.19L193.3 354.47H202.94L205.25 361.8ZM181.98 337.78V333.92H169.79V337.78H173.38V357.94H169.79V361.8H181.98V357.94H178.39V337.78H181.98ZM156.64 362.32C160.31 362.32 163.29 360.89 165.17 359.41L163.06 356.42C161.47 357.5 159.51 358.45 156.77 358.45C152.71 358.45 150.67 356.14 150.67 351.76V344.23C150.67 339.77 152.94 337.26 157 337.26C159.55 337.26 161.26 338.14 162.86 339.29L165.41 336.42C163.26 334.71 160.79 333.39 156.84 333.39C149.87 333.39 145.64 337.69 145.64 344.51V351.84C145.64 358.13 149.62 362.32 156.64 362.32ZM139.51 337.78V333.92H123.22V361.81H139.51V357.91H128.24V349.58H138.64V345.72H128.24V337.79H139.51V337.78ZM111.78 343.92C111.78 347.11 109.63 348.42 106.04 348.42H102.69V337.74H106.63C109.78 337.74 111.77 339.09 111.77 342.12V343.91L111.78 343.92ZM106.88 333.92H97.6799V361.81H102.7V352.25H106.21C112.58 352.25 116.81 349.3 116.81 344.2V341.89C116.81 336.75 112.91 333.92 106.89 333.92H106.88ZM79.8299 362.33C86.0799 362.33 90.4699 359.18 90.4699 354.48V353.4C90.4699 349.14 87.5599 347.11 83.7399 345.91L80.0299 344.71C76.8399 343.71 75.5699 342.56 75.5699 341.16V340.48C75.5699 338.93 77.0799 337.21 80.7099 337.21C83.4999 337.21 85.2899 337.85 87.8399 339.76L90.3099 337.01C87.7999 334.7 84.7299 333.38 80.5099 333.38C74.1399 333.38 70.5499 336.73 70.5499 340.51V341.43C70.5499 344.5 72.4199 346.97 77.1199 348.48L81.2199 349.83C84.5299 350.91 85.4799 351.9 85.4799 353.89V354.41C85.4799 356.28 83.6899 358.31 79.5799 358.31C75.7899 358.31 74.2399 357.23 71.8899 355.68L69.3799 358.67C71.5699 360.7 74.7599 362.3 79.8199 362.3L79.8299 362.33Z" fill="white"/>
</svg>
