<svg width="396" height="396" viewBox="0 0 396 396" fill="none" xmlns="http://www.w3.org/2000/svg">
<path d="M393 302.01V39C393 19.2 376.8 3 357 3H87.79L3 55.74V302.01H393Z" fill="black"/>
<path d="M393 393V304.01H3V357C3 376.8 19.2 393 39 393H393Z" fill="#C17A08"/>
<path d="M393 302.01H3V304.01H393V302.01Z" fill="white"/>
<path d="M218.1 303.01L198 290.51L177.9 303.01L198 315.51L218.1 303.01Z" fill="white"/>
<path d="M330.35 92.04H65.65V94.04H330.35V92.04Z" fill="white"/>
<path d="M330.35 41.4301H322.52L313.13 51.9101V41.4301H306.55L306.58 67.2301H313.13V57.4301L322.03 67.2301H330.35L318.35 54.5001L330.35 41.4301Z" fill="white"/>
<path d="M295.94 52.04L289.94 51.36C286.42 50.97 285.55 50.1 285.55 48.91C285.55 47.59 287.36 46.39 290.87 46.39C294.38 46.39 296.03 47.65 296.35 49.55H302.8C302.48 44.1 297.9 40.71 291.22 40.71C283.29 40.71 279.29 43.87 279.29 49.45C279.29 54 281.93 56.13 287.42 56.71L293.52 57.36C295.84 57.62 296.91 58.52 296.91 59.68C296.91 61 295.36 62.2 291.62 62.2C287.3 62.2 285.56 61.1 285.27 58.91H278.95C279.24 64.84 283.11 67.88 291.4 67.88C298.98 67.88 303.2 64.56 303.2 59.56C303.2 55.21 300.68 52.59 295.94 52.05V52.04Z" fill="white"/>
<path d="M255.27 67.2301H276.04V61.6601H261.85V56.9801H273.27V51.3701H261.85V47.0101H276.04V41.4301H255.27V67.2301Z" fill="white"/>
<path d="M239.79 41.4301H227.73V67.2301H239.79C249.05 67.2301 251.59 63.7801 251.59 54.1401C251.59 45.0801 249.14 41.4301 239.79 41.4301ZM239.53 61.6501H234.31V47.0101H239.53C243.66 47.0101 244.88 48.1401 244.88 54.1401C244.88 59.6201 243.49 61.6601 239.53 61.6601V61.6501Z" fill="white"/>
<path d="M209.86 40.72C200.47 40.72 195.6 46.49 195.6 54.27C195.6 62.05 200.47 67.88 209.86 67.88C219.25 67.88 224.15 62.07 224.15 54.27C224.15 46.47 219.28 40.72 209.86 40.72ZM209.86 62.07C204.99 62.07 202.31 59.1 202.31 54.26C202.31 49.42 204.99 46.52 209.86 46.52C214.73 46.52 217.41 49.52 217.41 54.26C217.41 59 214.77 62.07 209.86 62.07Z" fill="white"/>
<path d="M171.35 47.0101H179.67V67.2301H186.25V47.0101H194.54V41.4301H171.35V47.0101Z" fill="white"/>
<path d="M161.77 57.3699C161.77 60.7199 159.71 62.0799 156.19 62.0799C152.67 62.0799 150.55 60.6599 150.55 57.3699V41.4399H143.97V58.1099C143.97 65.5599 150.61 67.8799 156.19 67.8799C161.77 67.8799 168.35 65.5599 168.35 58.1099V41.4399H161.77V57.3699Z" fill="white"/>
<path d="M124.71 41.4301L114.81 67.2301H121.62L123.35 62.3901H134.4L136.1 67.2301H143.13L133.1 41.4301H124.71ZM125.3 56.9101L128.91 46.8001L132.46 56.9101H125.29H125.3Z" fill="white"/>
<path d="M65.85 67.24L88.96 52.8701H100.95C101.32 52.8701 101.65 53.1701 101.65 53.5701C101.65 53.9001 101.5 54.0501 101.32 54.1601L89.97 60.9601C89.23 61.4001 88.97 62.29 88.97 62.95V67.24H103.38V42.3201C103.38 41.8401 103.01 41.4301 102.46 41.4301H88.7L65.65 55.7401V67.24H65.85Z" fill="white"/>
<path d="M135.96 142.8V145.32C135.96 150.17 131.85 152.94 125.78 152.94H123.19V161.23H116.71V135.33H126.37C132.18 135.33 135.95 138.03 135.95 142.8H135.96ZM129.48 143.17C129.48 140.95 128.07 139.91 125.89 139.91H123.19V148.35H125.45C127.89 148.35 129.48 147.35 129.48 144.83V143.16V143.17Z" fill="white"/>
<path d="M148.67 151.57H146.23V161.23H139.75V135.33H149.56C155.18 135.33 159 137.99 159 142.32V144.43C159 147.09 157.34 149.09 154.71 150.31L160.45 161.23H153.46L148.69 151.57H148.67ZM146.23 147.24H149.08C151.19 147.24 152.52 146.2 152.52 144.35V142.72C152.52 140.65 151.15 139.65 149.12 139.65H146.23V147.24Z" fill="white"/>
<path d="M185.15 145.31V151.27C185.15 157.52 181.3 161.82 173.94 161.82C166.58 161.82 162.77 157.53 162.77 151.27V145.31C162.77 139.02 166.69 134.73 173.94 134.73C181.19 134.73 185.15 139.02 185.15 145.31ZM169.24 145.27V151.23C169.24 155.15 170.83 157.19 173.94 157.19C177.05 157.19 178.64 155.15 178.64 151.23V145.27C178.64 141.38 177.05 139.35 173.94 139.35C170.83 139.35 169.24 141.39 169.24 145.27Z" fill="white"/>
<path d="M209.97 145.65V150.42C209.97 157.08 205.9 161.22 198.2 161.22H189.73V135.32H199.09C206.34 135.32 209.97 139.46 209.97 145.64V145.65ZM203.49 145.43C203.49 141.8 202.01 139.99 198.9 139.99H196.2V156.57H198.35C201.79 156.57 203.49 154.72 203.49 150.61V145.43Z" fill="white"/>
<path d="M235.14 152.82C235.14 158 231.7 161.81 224.59 161.81C217.48 161.81 214.01 158 214.01 152.82V135.32H220.48V152.79C220.48 155.49 221.7 157.19 224.59 157.19C227.48 157.19 228.66 155.49 228.66 152.79V135.32H235.14V152.82Z" fill="white"/>
<path d="M239.32 151.86V145.2C239.32 138.76 243.43 134.73 250.31 134.73C254.23 134.73 256.67 135.95 258.78 137.73L255.67 141.17C254.19 140.02 252.67 139.36 250.56 139.36C247.53 139.36 245.79 141.1 245.79 144.43V151.98C245.79 155.5 247.34 157.2 250.49 157.2C252.82 157.2 254.63 156.31 256.08 155.31L258.63 158.83C256.78 160.38 253.78 161.83 250.19 161.83C243.31 161.83 239.31 157.91 239.31 151.88L239.32 151.86Z" fill="white"/>
<path d="M281.02 139.99H274.25V161.22H267.77V139.99H260.93V135.32H281.02V139.99Z" fill="white"/>
<path d="M134.38 189.65V194.42C134.38 201.08 130.31 205.22 122.61 205.22H114.14V179.32H123.5C130.75 179.32 134.38 183.46 134.38 189.64V189.65ZM127.9 189.43C127.9 185.8 126.42 183.99 123.31 183.99H120.61V200.57H122.76C126.2 200.57 127.9 198.72 127.9 194.61V189.43Z" fill="white"/>
<path d="M145.34 183.99V189.79H154.22V194.42H145.34V200.45H154.99V205.22H138.86V179.32H154.99V183.98H145.34V183.99Z" fill="white"/>
<path d="M157.98 202.26L160.9 198.71C163.12 200.23 164.71 201.12 167.86 201.12C171.01 201.12 172.41 199.75 172.41 198.2V197.76C172.41 196.32 171.71 195.54 168.97 194.61L165.45 193.43C161.08 191.99 159.09 189.73 159.09 186.73V185.77C159.09 181.66 162.9 178.74 168.9 178.74C173.08 178.74 176.12 180.11 178.45 182.14L175.53 185.51C173.2 183.81 171.57 183.25 169.46 183.25C166.91 183.25 165.54 184.32 165.54 185.54V186.02C165.54 187.09 166.43 187.8 169.24 188.72L172.75 189.9C176.23 191.08 178.78 193.23 178.78 197.04V198.15C178.78 202.92 174.23 205.81 168.49 205.81C163.42 205.81 160.16 204.26 157.98 202.26Z" fill="white"/>
<path d="M191.7 183.95V200.56H195.03V205.22H181.93V200.56H185.23V183.95H181.93V179.32H195.03V183.95H191.7Z" fill="white"/>
<path d="M219.36 190.42V205.22H214.55L214.07 203.37C212.48 204.78 210.26 205.81 207.48 205.81C202.37 205.81 198.27 202.26 198.27 196.56V189.12C198.27 182.87 202.49 178.72 209.52 178.72C213.92 178.72 217.11 180.2 219.18 183.05L215.15 185.86C213.78 184.27 212.23 183.34 209.86 183.34C206.49 183.34 204.75 185.15 204.75 188.52V196.62C204.75 199.43 206.16 201.17 208.89 201.17C210.85 201.17 212.26 200.32 213.18 199.21L213.22 194.7H208.89V190.41H219.36V190.42Z" fill="white"/>
<path d="M245.05 179.32V205.22H238.06L229.62 187.35V205.22H224.11V179.32H231.69L239.54 195.38V179.32H245.05Z" fill="white"/>
<path d="M277.61 205.22L275.69 203.3C273.43 205.15 271.32 205.82 267.99 205.82C262.25 205.82 258.22 203.01 258.22 198.64V196.98C258.22 194.02 259.92 191.91 263.07 190.5C261.41 188.8 260.33 187.5 260.33 185.62V184.36C260.33 180.77 263.66 178.74 268.54 178.74C273.94 178.74 276.57 181.26 276.57 184.36V185.54C276.57 188.28 274.98 189.98 271.13 191.79L275.31 196.05L278.16 190.8L282.56 192.95L278.82 199.65L284.33 205.24H277.6L277.61 205.22ZM268.25 201.3C269.95 201.3 271.17 200.86 272.32 199.89L266.4 193.9C265.25 194.64 264.62 195.53 264.62 197.08V198.04C264.62 200.11 266.03 201.3 268.25 201.3ZM265.99 185.32C265.99 186.39 266.54 187.13 267.99 188.61C270.25 187.65 271.02 186.61 271.02 185.28V184.72C271.02 183.46 270.1 182.68 268.54 182.68C266.98 182.68 265.99 183.42 265.99 184.72V185.31V185.32Z" fill="white"/>
<path d="M69.43 223.32V249.22H63.33V232.65L59.33 245.49L59.37 245.52H53.19L49.12 232.28V249.22H43.34V223.32H51.49L56.41 239.94L61.59 223.4L61.55 223.32H69.43Z" fill="white"/>
<path d="M88.43 243.56H80.66L79.22 249.22H72.78L80.18 223.32H88.8L96.61 249.22H90.02L88.43 243.56ZM84.47 227.57L81.84 238.74H87.17L84.47 227.57Z" fill="white"/>
<path d="M120.9 223.32V249.22H113.9L105.47 231.35V249.22H99.9498V223.32H107.54L115.38 239.38V223.32H120.9Z" fill="white"/>
<path d="M147.07 240.82C147.07 246 143.63 249.81 136.52 249.81C129.41 249.81 125.94 246 125.94 240.82V223.32H132.42V240.78C132.42 243.48 133.64 245.18 136.53 245.18C139.42 245.18 140.6 243.48 140.6 240.78V223.32H147.08V240.82H147.07Z" fill="white"/>
<path d="M158.62 227.99V234.16H167.13V238.75H158.62V249.22H152.14V223.32H168.68V227.99H158.62Z" fill="white"/>
<path d="M184.13 243.56H176.36L174.92 249.22H168.48L175.88 223.32H184.5L192.31 249.22H185.72L184.13 243.56ZM180.17 227.57L177.54 238.74H182.87L180.17 227.57Z" fill="white"/>
<path d="M194 239.86V233.2C194 226.76 198.11 222.73 204.99 222.73C208.91 222.73 211.35 223.95 213.46 225.73L210.35 229.17C208.87 228.02 207.35 227.36 205.24 227.36C202.21 227.36 200.47 229.1 200.47 232.43V239.98C200.47 243.5 202.02 245.2 205.17 245.2C207.5 245.2 209.31 244.31 210.76 243.31L213.31 246.83C211.46 248.38 208.46 249.83 204.87 249.83C197.99 249.83 193.99 245.91 193.99 239.88L194 239.86Z" fill="white"/>
<path d="M235.7 227.99H228.93V249.22H222.45V227.99H215.61V223.32H235.7V227.99Z" fill="white"/>
<path d="M259.91 240.82C259.91 246 256.47 249.81 249.36 249.81C242.25 249.81 238.78 246 238.78 240.82V223.32H245.25V240.78C245.25 243.48 246.47 245.18 249.36 245.18C252.25 245.18 253.43 243.48 253.43 240.78V223.32H259.91V240.82Z" fill="white"/>
<path d="M273.9 239.57H271.46V249.23H264.99V223.33H274.8C280.42 223.33 284.24 225.99 284.24 230.32V232.43C284.24 235.09 282.58 237.09 279.95 238.31L285.69 249.23H278.7L273.93 239.57H273.9ZM271.46 235.24H274.31C276.42 235.24 277.75 234.2 277.75 232.35V230.72C277.75 228.65 276.38 227.65 274.35 227.65H271.46V235.23V235.24Z" fill="white"/>
<path d="M298.45 227.95V244.56H301.78V249.22H288.68V244.56H291.97V227.95H288.68V223.32H301.78V227.95H298.45Z" fill="white"/>
<path d="M326.96 223.32V249.22H319.96L311.52 231.35V249.22H306.01V223.32H313.6L321.44 239.38V223.32H326.96Z" fill="white"/>
<path d="M352.66 234.42V249.22H347.85L347.37 247.37C345.78 248.78 343.56 249.81 340.78 249.81C335.67 249.81 331.57 246.26 331.57 240.56V233.12C331.57 226.87 335.79 222.72 342.82 222.72C347.22 222.72 350.4 224.2 352.48 227.05L348.45 229.86C347.08 228.27 345.53 227.34 343.16 227.34C339.79 227.34 338.05 229.15 338.05 232.52V240.62C338.05 243.43 339.46 245.17 342.19 245.17C344.15 245.17 345.56 244.32 346.48 243.21L346.52 238.7H342.19V234.41H352.66V234.42Z" fill="white"/>
<path d="M319.27 350.1C319.27 355.4 316.84 357.95 311.98 357.95H308.83V337.79H312.69C317.11 337.79 319.26 340.42 319.26 344.96V350.1H319.27ZM312.94 333.92H303.82V361.81H311.95C320 361.81 324.3 357.27 324.3 350.02V345.08C324.3 338.39 320.51 333.92 312.95 333.92H312.94ZM296.13 337.78V333.92H279.84V361.81H296.13V357.91H284.86V349.58H295.26V345.72H284.86V337.79H296.13V337.78ZM272.94 333.92H254.37V337.78H267.52L253.81 357.98V361.8H273.29V357.78H259.23L272.94 337.58V333.91V333.92ZM248.48 337.78V333.92H236.29V337.78H239.88V357.94H236.29V361.8H248.48V357.94H244.89V337.78H248.48ZM221.03 357.74V333.92H216.01V361.81H232.34V357.75H221.03V357.74ZM198.04 337.42L201.75 350.45H194.42L198.05 337.42H198.04ZM205.25 361.8H210.43L201.47 333.91H194.66L186.13 361.8H191.19L193.3 354.47H202.94L205.25 361.8ZM181.98 337.78V333.92H169.79V337.78H173.38V357.94H169.79V361.8H181.98V357.94H178.39V337.78H181.98ZM156.64 362.32C160.31 362.32 163.29 360.89 165.17 359.41L163.06 356.42C161.47 357.5 159.51 358.45 156.77 358.45C152.71 358.45 150.67 356.14 150.67 351.76V344.23C150.67 339.77 152.94 337.26 157 337.26C159.55 337.26 161.26 338.14 162.86 339.29L165.41 336.42C163.26 334.71 160.79 333.39 156.84 333.39C149.87 333.39 145.64 337.69 145.64 344.51V351.84C145.64 358.13 149.62 362.32 156.64 362.32ZM139.51 337.78V333.92H123.22V361.81H139.51V357.91H128.24V349.58H138.64V345.72H128.24V337.79H139.51V337.78ZM111.78 343.92C111.78 347.11 109.63 348.42 106.04 348.42H102.69V337.74H106.63C109.78 337.74 111.77 339.09 111.77 342.12V343.91L111.78 343.92ZM106.88 333.92H97.6799V361.81H102.7V352.25H106.21C112.58 352.25 116.81 349.3 116.81 344.2V341.89C116.81 336.75 112.91 333.92 106.89 333.92H106.88ZM79.8299 362.33C86.0799 362.33 90.4699 359.18 90.4699 354.48V353.4C90.4699 349.14 87.5599 347.11 83.7399 345.91L80.0299 344.71C76.8399 343.71 75.5699 342.56 75.5699 341.16V340.48C75.5699 338.93 77.0799 337.21 80.7099 337.21C83.4999 337.21 85.2899 337.85 87.8399 339.76L90.3099 337.01C87.7999 334.7 84.7299 333.38 80.5099 333.38C74.1399 333.38 70.5499 336.73 70.5499 340.51V341.43C70.5499 344.5 72.4199 346.97 77.1199 348.48L81.2199 349.83C84.5299 350.91 85.4799 351.9 85.4799 353.89V354.41C85.4799 356.28 83.6899 358.31 79.5799 358.31C75.7899 358.31 74.2399 357.23 71.8899 355.68L69.3799 358.67C71.5699 360.7 74.7599 362.3 79.8199 362.3L79.8299 362.33Z" fill="white"/>
</svg>
