<?xml version="1.0" encoding="UTF-8"?> <svg xmlns="http://www.w3.org/2000/svg" width="395" height="472" viewBox="0 0 395 472" fill="none"><g opacity="0.8" filter="url(#filter0_d_67_4780)"><path d="M240.515 151.433C223.938 134.856 197.062 134.856 180.485 151.433L78.4327 253.485C61.8558 270.062 61.8558 296.938 78.4327 313.515L180.485 415.567C197.062 432.144 223.938 432.144 240.515 415.567L342.567 313.515C359.144 296.938 359.144 270.062 342.567 253.485L240.515 151.433Z" fill="url(#paint0_linear_67_4780)"></path></g><g filter="url(#filter1_d_67_4780)"><path d="M91.3169 43.8284C99.1519 36.0572 111.848 36.0572 119.683 43.8284L163.117 86.9092C170.961 94.6895 170.961 107.311 163.117 115.091L119.683 158.172C111.848 165.943 99.1519 165.943 91.3169 158.172L47.883 115.091C40.039 107.311 40.039 94.6895 47.883 86.9092L91.3169 43.8284Z" stroke="url(#paint1_linear_67_4780)" stroke-width="4" shape-rendering="crispEdges"></path></g><defs><filter id="filter0_d_67_4780" x="26" y="103" width="369" height="369" filterUnits="userSpaceOnUse" color-interpolation-filters="sRGB"><feFlood flood-opacity="0" result="BackgroundImageFix"></feFlood><feColorMatrix in="SourceAlpha" type="matrix" values="0 0 0 0 0 0 0 0 0 0 0 0 0 0 0 0 0 0 127 0" result="hardAlpha"></feColorMatrix><feOffset dy="4"></feOffset><feGaussianBlur stdDeviation="20"></feGaussianBlur><feComposite in2="hardAlpha" operator="out"></feComposite><feColorMatrix type="matrix" values="0 0 0 0 0 0 0 0 0 0 0 0 0 0 0 0 0 0 0.8 0"></feColorMatrix><feBlend mode="normal" in2="BackgroundImageFix" result="effect1_dropShadow_67_4780"></feBlend><feBlend mode="normal" in="SourceGraphic" in2="effect1_dropShadow_67_4780" result="shape"></feBlend></filter><filter id="filter1_d_67_4780" x="0" y="0" width="211" height="210" filterUnits="userSpaceOnUse" color-interpolation-filters="sRGB"><feFlood flood-opacity="0" result="BackgroundImageFix"></feFlood><feColorMatrix in="SourceAlpha" type="matrix" values="0 0 0 0 0 0 0 0 0 0 0 0 0 0 0 0 0 0 127 0" result="hardAlpha"></feColorMatrix><feOffset dy="4"></feOffset><feGaussianBlur stdDeviation="20"></feGaussianBlur><feComposite in2="hardAlpha" operator="out"></feComposite><feColorMatrix type="matrix" values="0 0 0 0 0 0 0 0 0 0 0 0 0 0 0 0 0 0 0.4 0"></feColorMatrix><feBlend mode="normal" in2="BackgroundImageFix" result="effect1_dropShadow_67_4780"></feBlend><feBlend mode="normal" in="SourceGraphic" in2="effect1_dropShadow_67_4780" result="shape"></feBlend></filter><linearGradient id="paint0_linear_67_4780" x1="355" y1="181.868" x2="49.9457" y2="205.771" gradientUnits="userSpaceOnUse"><stop stop-color="#FF0083"></stop><stop offset="0.819229" stop-color="#FFD700"></stop><stop offset="0.995284" stop-color="white"></stop></linearGradient><linearGradient id="paint1_linear_67_4780" x1="167" y1="58.0967" x2="37.1803" y2="68.3522" gradientUnits="userSpaceOnUse"><stop stop-color="#FF0083"></stop><stop offset="0.819229" stop-color="#FFD700"></stop><stop offset="0.995284" stop-color="#DED9BB"></stop></linearGradient></defs></svg> 