<?xml version="1.0" encoding="UTF-8"?>
<svg id="Artwork" xmlns="http://www.w3.org/2000/svg" width="267.927" height="64.362" version="1.1" viewBox="0 0 267.927 64.362">
  <!-- Generator: Adobe Illustrator 29.4.0, SVG Export Plug-In . SVG Version: 2.1.0 Build 152)  -->
  <path d="M51.931,46.83c-.078.223-1.328,4.531-4.375,8.982-2.631,3.85-5.363,7.685-9.67,7.764-4.228.08-5.59-2.51-10.422-2.51s-6.35,2.432-10.348,2.59c-4.154.156-7.322-4.162-9.973-7.996-5.428-7.844-9.568-22.162-4-31.82,2.758-4.803,7.701-7.842,13.064-7.92,4.084-.076,7.93,2.742,10.426,2.742s7.17-3.393,12.088-2.894c2.059.088,7.84.828,11.553,6.264-.295.188-6.898,4.029-6.826,12.018.086,9.562,8.385,12.742,8.482,12.781ZM35.5,10.584c2.211-2.674,3.693-6.387,3.287-10.084-3.178.117-7.027,2.115-9.303,4.785-2.045,2.363-3.838,6.145-3.352,9.766,3.541.275,7.166-1.801,9.367-4.467Z"/>
  <g>
    <path d="M70.26,15.633h6.686c3.524,0,5.964,2.366,5.964,5.89v.025c0,3.511-2.44,5.915-5.964,5.915h-3.897v6.138h-2.789V15.633ZM73.049,17.987v7.135h3.2c2.428,0,3.823-1.308,3.823-3.562v-.024c0-2.241-1.395-3.549-3.823-3.549h-3.2Z"/>
    <path d="M85.155,20.502h2.689v2.241h.062c.423-1.532,1.519-2.49,3.013-2.49.386,0,.722.062.934.1v2.502c-.212-.087-.685-.149-1.208-.149-1.73,0-2.801,1.133-2.801,3.088v7.807h-2.689v-13.099Z"/>
    <path d="M92.631,27.101v-.013c0-4.096,2.366-6.835,6.039-6.835s5.927,2.64,5.927,6.574v.909h-9.276c.05,2.478,1.407,3.922,3.548,3.922,1.594,0,2.652-.822,2.988-1.805l.038-.1h2.552l-.025.137c-.423,2.079-2.44,3.972-5.615,3.972-3.848,0-6.176-2.627-6.176-6.761ZM95.358,25.831h6.574c-.224-2.266-1.494-3.375-3.25-3.375-1.743,0-3.088,1.183-3.325,3.375Z"/>
    <path d="M106.931,20.502h2.689v2.03h.062c.56-1.37,1.893-2.279,3.611-2.279,1.805,0,3.125.934,3.648,2.578h.062c.672-1.594,2.216-2.578,4.084-2.578,2.59,0,4.283,1.718,4.283,4.345v9.002h-2.702v-8.355c0-1.706-.909-2.689-2.502-2.689s-2.702,1.195-2.702,2.852v8.193h-2.64v-8.554c0-1.519-.958-2.49-2.478-2.49-1.594,0-2.727,1.258-2.727,2.951v8.093h-2.689v-13.099Z"/>
    <path d="M128.104,16.941c0-.859.697-1.557,1.569-1.557.884,0,1.569.697,1.569,1.557,0,.847-.685,1.544-1.569,1.544-.872,0-1.569-.697-1.569-1.544ZM128.328,20.502h2.689v13.099h-2.689v-13.099Z"/>
    <path d="M133.987,28.994v-8.492h2.689v7.969c0,1.98.921,3.076,2.789,3.076,1.893,0,3.113-1.357,3.113-3.399v-7.645h2.702v13.099h-2.702v-1.967h-.062c-.685,1.32-2.017,2.229-4.009,2.229-2.876,0-4.52-1.855-4.52-4.868Z"/>
    <path d="M148.188,20.502h2.689v2.03h.062c.561-1.37,1.893-2.279,3.611-2.279,1.806,0,3.125.934,3.648,2.578h.062c.672-1.594,2.216-2.578,4.084-2.578,2.59,0,4.283,1.718,4.283,4.345v9.002h-2.702v-8.355c0-1.706-.909-2.689-2.503-2.689s-2.702,1.195-2.702,2.852v8.193h-2.64v-8.554c0-1.519-.959-2.49-2.478-2.49-1.594,0-2.727,1.258-2.727,2.951v8.093h-2.689v-13.099Z"/>
    <path d="M70.26,45.633h11.405v2.403h-8.616v5.242h8.155v2.341h-8.155v5.578h8.616v2.403h-11.405v-17.968Z"/>
    <path d="M83.748,57.051v-.013c0-4.171,2.167-6.785,5.454-6.785,1.855,0,3.35.934,4.134,2.478h.05v-7.098h2.702v17.968h-2.702v-2.217h-.05c-.784,1.531-2.229,2.478-4.109,2.478-3.337,0-5.479-2.64-5.479-6.811ZM93.398,57.051v-.013c0-2.714-1.444-4.482-3.461-4.482-2.117,0-3.437,1.719-3.437,4.482v.013c0,2.789,1.307,4.495,3.437,4.495,2.029,0,3.461-1.769,3.461-4.495Z"/>
    <path d="M99.031,58.994v-8.492h2.689v7.969c0,1.98.921,3.076,2.789,3.076,1.893,0,3.113-1.357,3.113-3.399v-7.646h2.702v13.1h-2.702v-1.968h-.062c-.685,1.319-2.017,2.229-4.009,2.229-2.876,0-4.52-1.854-4.52-4.868Z"/>
    <path d="M112.647,57.039v-.012c0-4.146,2.44-6.773,6.176-6.773,3.374,0,5.416,2.166,5.64,4.631l.013.088h-2.565l-.025-.1c-.287-1.283-1.283-2.366-3.038-2.366-2.092,0-3.449,1.743-3.449,4.545v.013c0,2.863,1.382,4.545,3.461,4.545,1.656,0,2.714-.959,3.038-2.379l.013-.1h2.59l-.013.088c-.286,2.627-2.478,4.644-5.628,4.644-3.822,0-6.213-2.627-6.213-6.823Z"/>
    <path d="M126.137,59.877v-.024c0-2.279,1.768-3.674,4.869-3.86l3.561-.212v-.983c0-1.444-.934-2.315-2.603-2.315-1.556,0-2.515.734-2.739,1.78l-.025.112h-2.54l.013-.137c.187-2.254,2.142-3.984,5.366-3.984,3.2,0,5.229,1.693,5.229,4.32v9.027h-2.702v-2.067h-.05c-.76,1.407-2.279,2.304-4.009,2.304-2.615,0-4.371-1.606-4.371-3.96ZM131.242,61.683c1.893,0,3.325-1.282,3.325-2.988v-1.021l-3.2.199c-1.619.1-2.515.81-2.515,1.918v.025c0,1.145.946,1.867,2.391,1.867Z"/>
    <path d="M140.885,60.152v-7.508h-1.88v-2.143h1.88v-3.411h2.751v3.411h2.453v2.143h-2.453v7.346c0,1.332.598,1.73,1.731,1.73.286,0,.523-.024.722-.05v2.079c-.312.051-.822.112-1.37.112-2.59,0-3.835-1.096-3.835-3.71Z"/>
    <path d="M148.449,46.941c0-.859.697-1.557,1.569-1.557.884,0,1.569.697,1.569,1.557,0,.847-.685,1.544-1.569,1.544-.872,0-1.569-.697-1.569-1.544ZM148.673,50.501h2.689v13.1h-2.689v-13.1Z"/>
    <path d="M153.605,57.051v-.024c0-4.184,2.478-6.773,6.201-6.773s6.226,2.577,6.226,6.773v.024c0,4.221-2.465,6.811-6.213,6.811s-6.213-2.603-6.213-6.811ZM163.279,57.051v-.024c0-2.864-1.37-4.521-3.474-4.521-2.067,0-3.449,1.656-3.449,4.521v.024c0,2.901,1.37,4.558,3.474,4.558s3.449-1.669,3.449-4.558Z"/>
    <path d="M168.162,50.501h2.689v1.98h.062c.685-1.332,2.03-2.229,4.009-2.229,2.876,0,4.532,1.854,4.532,4.868v8.479h-2.702v-7.969c0-1.968-.921-3.076-2.789-3.076-1.893,0-3.113,1.37-3.113,3.412v7.633h-2.689v-13.1Z"/>
    <path d="M188.045,45.633h6.687c3.523,0,5.964,2.366,5.964,5.89v.025c0,3.511-2.44,5.914-5.964,5.914h-3.897v6.139h-2.789v-17.968ZM190.835,47.987v7.135h3.2c2.428,0,3.822-1.308,3.822-3.562v-.024c0-2.241-1.395-3.549-3.822-3.549h-3.2Z"/>
    <path d="M201.511,59.877v-.024c0-2.279,1.768-3.674,4.868-3.86l3.561-.212v-.983c0-1.444-.934-2.315-2.602-2.315-1.557,0-2.515.734-2.739,1.78l-.025.112h-2.54l.012-.137c.187-2.254,2.142-3.984,5.367-3.984,3.2,0,5.229,1.693,5.229,4.32v9.027h-2.702v-2.067h-.05c-.759,1.407-2.278,2.304-4.009,2.304-2.615,0-4.37-1.606-4.37-3.96ZM206.616,61.683c1.893,0,3.324-1.282,3.324-2.988v-1.021l-3.2.199c-1.619.1-2.515.81-2.515,1.918v.025c0,1.145.946,1.867,2.391,1.867Z"/>
    <path d="M215.5,50.501h2.689v2.242h.062c.423-1.532,1.519-2.49,3.013-2.49.386,0,.722.062.934.1v2.502c-.212-.087-.685-.149-1.208-.149-1.73,0-2.801,1.134-2.801,3.088v7.808h-2.689v-13.1Z"/>
    <path d="M225.454,60.152v-7.508h-1.88v-2.143h1.88v-3.411h2.752v3.411h2.453v2.143h-2.453v7.346c0,1.332.598,1.73,1.73,1.73.287,0,.523-.024.722-.05v2.079c-.311.051-.822.112-1.37.112-2.59,0-3.835-1.096-3.835-3.71Z"/>
    <path d="M233.13,50.501h2.689v1.98h.062c.685-1.332,2.03-2.229,4.009-2.229,2.876,0,4.532,1.854,4.532,4.868v8.479h-2.702v-7.969c0-1.968-.921-3.076-2.789-3.076-1.893,0-3.113,1.37-3.113,3.412v7.633h-2.689v-13.1Z"/>
    <path d="M246.428,57.101v-.013c0-4.097,2.366-6.835,6.039-6.835s5.927,2.639,5.927,6.574v.908h-9.276c.05,2.479,1.407,3.922,3.548,3.922,1.594,0,2.652-.821,2.988-1.805l.038-.1h2.552l-.025.137c-.423,2.079-2.44,3.972-5.615,3.972-3.848,0-6.176-2.627-6.176-6.761ZM249.155,55.832h6.574c-.224-2.267-1.494-3.375-3.25-3.375-1.743,0-3.088,1.184-3.325,3.375Z"/>
    <path d="M260.728,50.501h2.689v2.242h.062c.423-1.532,1.519-2.49,3.013-2.49.386,0,.722.062.934.1v2.502c-.212-.087-.685-.149-1.208-.149-1.73,0-2.801,1.134-2.801,3.088v7.808h-2.689v-13.1Z"/>
  </g>
</svg>