<svg width="396" height="396" viewBox="0 0 396 396" fill="none" xmlns="http://www.w3.org/2000/svg">
<path d="M393 302.01V39C393 19.2 376.8 3 357 3H87.79L3 55.74V302.01H393Z" fill="black"/>
<path d="M393 393V304.01H3V357C3 376.8 19.2 393 39 393H393Z" fill="#666666"/>
<path d="M393 302.01H3V304.01H393V302.01Z" fill="white"/>
<path d="M218.099 303.01L197.999 290.51L177.899 303.01L197.999 315.51L218.099 303.01Z" fill="white"/>
<path d="M330.35 92.0399H65.6499V94.0399H330.35V92.0399Z" fill="white"/>
<path d="M330.35 41.4299H322.52L313.13 51.9099V41.4299H306.55L306.58 67.2399H313.13V57.4299L322.03 67.2399H330.35L318.35 54.4999L330.35 41.4299Z" fill="white"/>
<path d="M295.94 52.04L289.94 51.36C286.42 50.97 285.55 50.1 285.55 48.91C285.55 47.59 287.36 46.39 290.87 46.39C294.38 46.39 296.03 47.65 296.35 49.55H302.8C302.48 44.1 297.9 40.71 291.22 40.71C283.29 40.71 279.29 43.87 279.29 49.45C279.29 54 281.93 56.13 287.42 56.71L293.52 57.36C295.84 57.62 296.91 58.52 296.91 59.68C296.91 61 295.36 62.2 291.62 62.2C287.3 62.2 285.56 61.1 285.27 58.91H278.95C279.24 64.84 283.11 67.88 291.4 67.88C298.98 67.88 303.2 64.56 303.2 59.56C303.2 55.21 300.68 52.59 295.94 52.05V52.04Z" fill="white"/>
<path d="M255.27 67.2399H276.04V61.6599H261.85V56.9799H273.27V51.3699H261.85V47.0099H276.04V41.4299H255.27V67.2399Z" fill="white"/>
<path d="M239.79 41.4299H227.73V67.2299H239.79C249.05 67.2299 251.59 63.7799 251.59 54.1399C251.59 45.0799 249.14 41.4299 239.79 41.4299ZM239.53 61.6499H234.31V47.0099H239.53C243.66 47.0099 244.88 48.1399 244.88 54.1399C244.88 59.6199 243.49 61.6499 239.53 61.6499Z" fill="white"/>
<path d="M209.86 40.72C200.47 40.72 195.6 46.49 195.6 54.27C195.6 62.05 200.47 67.88 209.86 67.88C219.25 67.88 224.15 62.07 224.15 54.27C224.15 46.47 219.28 40.72 209.86 40.72ZM209.86 62.07C204.99 62.07 202.31 59.1 202.31 54.26C202.31 49.42 204.99 46.52 209.86 46.52C214.73 46.52 217.41 49.52 217.41 54.26C217.41 59 214.77 62.07 209.86 62.07Z" fill="white"/>
<path d="M171.35 47.0099H179.67V67.2399H186.25V47.0099H194.54V41.4299H171.35V47.0099Z" fill="white"/>
<path d="M161.77 57.3699C161.77 60.7199 159.71 62.0799 156.19 62.0799C152.67 62.0799 150.55 60.6599 150.55 57.3699V41.4399H143.97V58.1099C143.97 65.5599 150.61 67.8799 156.19 67.8799C161.77 67.8799 168.35 65.5599 168.35 58.1099V41.4399H161.77V57.3699Z" fill="white"/>
<path d="M124.71 41.4299L114.81 67.2299H121.62L123.35 62.3899H134.4L136.1 67.2299H143.13L133.1 41.4299H124.71ZM125.3 56.9099L128.91 46.7999L132.46 56.9099H125.29H125.3Z" fill="white"/>
<path d="M65.8499 67.2399L88.9599 52.8699H100.95C101.32 52.8699 101.65 53.1599 101.65 53.5699C101.65 53.8999 101.5 54.0499 101.32 54.1599L89.9699 60.9599C89.2299 61.3999 88.9699 62.2899 88.9699 62.9499V67.2399H103.38V42.3199C103.38 41.8399 103.01 41.4299 102.46 41.4299H88.6999L65.6499 55.7399V67.2399H65.8499Z" fill="white"/>
<path d="M134.38 145.65V150.42C134.38 157.08 130.31 161.22 122.61 161.22H114.14V135.32H123.5C130.75 135.32 134.38 139.46 134.38 145.64V145.65ZM127.9 145.43C127.9 141.8 126.42 139.99 123.31 139.99H120.61V156.57H122.76C126.2 156.57 127.9 154.72 127.9 150.61V145.43Z" fill="white"/>
<path d="M145.34 139.99V145.79H154.22V150.42H145.34V156.45H154.99V161.22H138.86V135.32H154.99V139.99H145.34Z" fill="white"/>
<path d="M157.99 158.26L160.91 154.71C163.13 156.23 164.72 157.12 167.87 157.12C171.02 157.12 172.42 155.75 172.42 154.2V153.76C172.42 152.32 171.72 151.54 168.98 150.61L165.47 149.43C161.1 147.99 159.1 145.73 159.1 142.73V141.77C159.1 137.66 162.91 134.74 168.91 134.74C173.09 134.74 176.13 136.11 178.46 138.14L175.54 141.51C173.21 139.81 171.58 139.25 169.47 139.25C166.92 139.25 165.55 140.32 165.55 141.54V142.02C165.55 143.09 166.44 143.8 169.25 144.72L172.77 145.9C176.25 147.08 178.8 149.23 178.8 153.04V154.15C178.8 158.92 174.25 161.81 168.51 161.81C163.44 161.81 160.18 160.26 158 158.26H157.99Z" fill="white"/>
<path d="M191.7 139.95V156.56H195.03V161.22H181.93V156.56H185.23V139.95H181.93V135.32H195.03V139.95H191.7Z" fill="white"/>
<path d="M219.36 146.42V161.22H214.55L214.07 159.37C212.48 160.78 210.26 161.81 207.48 161.81C202.37 161.81 198.27 158.26 198.27 152.56V145.12C198.27 138.87 202.49 134.72 209.52 134.72C213.92 134.72 217.11 136.2 219.18 139.05L215.15 141.86C213.78 140.27 212.23 139.34 209.86 139.34C206.49 139.34 204.75 141.15 204.75 144.52V152.62C204.75 155.43 206.16 157.17 208.89 157.17C210.85 157.17 212.26 156.32 213.18 155.21L213.22 150.7H208.89V146.41H219.36V146.42Z" fill="white"/>
<path d="M245.05 135.32V161.22H238.06L229.62 143.35V161.22H224.11V135.32H231.69L239.54 151.38V135.32H245.05Z" fill="white"/>
<path d="M277.61 161.22L275.69 159.3C273.43 161.15 271.32 161.82 267.99 161.82C262.25 161.82 258.22 159.01 258.22 154.64V152.98C258.22 150.02 259.92 147.91 263.07 146.5C261.4 144.8 260.33 143.5 260.33 141.62V140.36C260.33 136.77 263.66 134.74 268.54 134.74C273.94 134.74 276.57 137.26 276.57 140.36V141.54C276.57 144.28 274.98 145.98 271.13 147.79L275.31 152.05L278.16 146.8L282.56 148.95L278.82 155.65L284.33 161.24H277.6L277.61 161.22ZM268.25 157.3C269.95 157.3 271.17 156.86 272.32 155.89L266.4 149.9C265.25 150.64 264.62 151.53 264.62 153.08V154.04C264.62 156.11 266.03 157.3 268.24 157.3H268.25ZM265.99 141.32C265.99 142.39 266.54 143.13 267.99 144.61C270.25 143.65 271.02 142.61 271.02 141.28V140.72C271.02 139.46 270.1 138.68 268.54 138.68C266.98 138.68 265.99 139.42 265.99 140.72V141.31V141.32Z" fill="white"/>
<path d="M69.4298 179.32V205.22H63.3298V188.65L59.3298 201.49L59.3698 201.52H53.1898L49.1198 188.28V205.22H43.3398V179.32H51.4898L56.4099 195.94L61.5898 179.4L61.5498 179.32H69.4298Z" fill="white"/>
<path d="M88.4298 199.56H80.6598L79.2198 205.22H72.7798L80.1798 179.32H88.7998L96.6098 205.22H90.0198L88.4298 199.56ZM84.4698 183.58L81.8398 194.75H87.1698L84.4698 183.58Z" fill="white"/>
<path d="M120.9 179.32V205.22H113.91L105.47 187.35V205.22H99.9497V179.32H107.54L115.38 195.38V179.32H120.9Z" fill="white"/>
<path d="M147.07 196.82C147.07 202 143.63 205.81 136.52 205.81C129.41 205.81 125.94 202 125.94 196.82V179.32H132.41V196.79C132.41 199.49 133.63 201.19 136.52 201.19C139.41 201.19 140.59 199.49 140.59 196.79V179.32H147.07V196.82Z" fill="white"/>
<path d="M158.62 183.99V190.16H167.13V194.75H158.62V205.22H152.14V179.32H168.68V183.99H158.62Z" fill="white"/>
<path d="M184.13 199.56H176.36L174.92 205.22H168.48L175.88 179.32H184.5L192.31 205.22H185.72L184.13 199.56ZM180.17 183.58L177.54 194.75H182.87L180.17 183.58Z" fill="white"/>
<path d="M194 195.86V189.2C194 182.76 198.11 178.73 204.99 178.73C208.91 178.73 211.36 179.95 213.46 181.73L210.35 185.17C208.87 184.02 207.35 183.36 205.24 183.36C202.2 183.36 200.47 185.1 200.47 188.43V195.98C200.47 199.5 202.02 201.2 205.17 201.2C207.5 201.2 209.31 200.31 210.76 199.31L213.31 202.83C211.46 204.38 208.46 205.83 204.87 205.83C197.99 205.83 193.99 201.91 193.99 195.88L194 195.86Z" fill="white"/>
<path d="M235.7 183.99H228.93V205.22H222.45V183.99H215.61V179.32H235.7V183.99Z" fill="white"/>
<path d="M259.91 196.82C259.91 202 256.47 205.81 249.36 205.81C242.25 205.81 238.78 202 238.78 196.82V179.32H245.25V196.79C245.25 199.49 246.47 201.19 249.36 201.19C252.25 201.19 253.43 199.49 253.43 196.79V179.32H259.91V196.82Z" fill="white"/>
<path d="M273.9 195.57H271.46V205.23H264.99V179.33H274.8C280.42 179.33 284.24 181.99 284.24 186.32V188.43C284.24 191.09 282.57 193.09 279.95 194.31L285.68 205.23H278.69L273.92 195.57H273.9ZM271.46 191.24H274.31C276.42 191.24 277.75 190.2 277.75 188.35V186.72C277.75 184.65 276.38 183.65 274.35 183.65H271.46V191.24Z" fill="white"/>
<path d="M298.45 183.95V200.56H301.78V205.22H288.68V200.56H291.97V183.95H288.68V179.32H301.78V183.95H298.45Z" fill="white"/>
<path d="M326.96 179.32V205.22H319.96L311.52 187.35V205.22H306.01V179.32H313.6L321.44 195.38V179.32H326.96Z" fill="white"/>
<path d="M352.66 190.42V205.22H347.85L347.37 203.37C345.78 204.78 343.56 205.81 340.78 205.81C335.67 205.81 331.57 202.26 331.57 196.56V189.12C331.57 182.87 335.79 178.72 342.82 178.72C347.22 178.72 350.4 180.2 352.48 183.05L348.45 185.86C347.08 184.27 345.53 183.34 343.16 183.34C339.79 183.34 338.05 185.15 338.05 188.52V196.62C338.05 199.43 339.46 201.17 342.19 201.17C344.15 201.17 345.56 200.32 346.48 199.21L346.52 194.7H342.19V190.41H352.66V190.42Z" fill="white"/>
<path d="M140.13 239.86V233.2C140.13 226.76 144.24 222.73 151.12 222.73C155.04 222.73 157.49 223.95 159.59 225.73L156.48 229.17C155 228.02 153.48 227.36 151.37 227.36C148.33 227.36 146.6 229.1 146.6 232.43V239.98C146.6 243.5 148.15 245.2 151.3 245.2C153.63 245.2 155.44 244.31 156.89 243.31L159.44 246.83C157.59 248.38 154.59 249.83 151 249.83C144.12 249.83 140.12 245.91 140.12 239.88L140.13 239.86Z" fill="white"/>
<path d="M179.34 244.3V249.22H163.14V223.32H169.61V244.3H179.34Z" fill="white"/>
<path d="M204.17 233.31V239.27C204.17 245.52 200.32 249.82 192.96 249.82C185.6 249.82 181.79 245.53 181.79 239.27V233.31C181.79 227.02 185.71 222.73 192.96 222.73C200.21 222.73 204.17 227.02 204.17 233.31ZM188.26 233.27V239.23C188.26 243.15 189.85 245.19 192.96 245.19C196.07 245.19 197.66 243.15 197.66 239.23V233.27C197.66 229.39 196.07 227.35 192.96 227.35C189.85 227.35 188.26 229.39 188.26 233.27Z" fill="white"/>
<path d="M229.41 240.82C229.41 246 225.97 249.81 218.87 249.81C211.77 249.81 208.29 246 208.29 240.82V223.32H214.76V240.78C214.76 243.48 215.98 245.18 218.87 245.18C221.76 245.18 222.94 243.48 222.94 240.78V223.32H229.41V240.82Z" fill="white"/>
<path d="M254.72 233.65V238.42C254.72 245.08 250.65 249.22 242.95 249.22H234.48V223.32H243.84C251.09 223.32 254.72 227.46 254.72 233.64V233.65ZM248.24 233.43C248.24 229.8 246.76 227.99 243.65 227.99H240.95V244.57H243.1C246.54 244.57 248.24 242.72 248.24 238.61V233.43Z" fill="white"/>
<path d="M319.27 350.1C319.27 355.4 316.84 357.95 311.98 357.95H308.83V337.79H312.69C317.11 337.79 319.26 340.42 319.26 344.96V350.1H319.27ZM312.94 333.92H303.82V361.81H311.95C320 361.81 324.3 357.27 324.3 350.02V345.08C324.3 338.39 320.51 333.92 312.95 333.92H312.94ZM296.13 337.78V333.92H279.84V361.81H296.13V357.91H284.86V349.58H295.26V345.72H284.86V337.79H296.13V337.78ZM272.94 333.92H254.37V337.78H267.52L253.81 357.98V361.8H273.29V357.78H259.23L272.94 337.58V333.91V333.92ZM248.48 337.78V333.92H236.29V337.78H239.88V357.94H236.29V361.8H248.48V357.94H244.89V337.78H248.48ZM221.03 357.74V333.92H216.01V361.81H232.34V357.75H221.03V357.74ZM198.04 337.42L201.75 350.45H194.42L198.05 337.42H198.04ZM205.25 361.8H210.43L201.47 333.91H194.66L186.13 361.8H191.19L193.3 354.47H202.94L205.25 361.8ZM181.98 337.78V333.92H169.79V337.78H173.38V357.94H169.79V361.8H181.98V357.94H178.39V337.78H181.98ZM156.64 362.32C160.31 362.32 163.29 360.89 165.17 359.41L163.06 356.42C161.47 357.5 159.51 358.45 156.77 358.45C152.71 358.45 150.67 356.14 150.67 351.76V344.23C150.67 339.77 152.94 337.26 157 337.26C159.55 337.26 161.26 338.14 162.86 339.29L165.41 336.42C163.26 334.71 160.79 333.39 156.84 333.39C149.87 333.39 145.64 337.69 145.64 344.51V351.84C145.64 358.13 149.62 362.32 156.64 362.32ZM139.51 337.78V333.92H123.22V361.81H139.51V357.91H128.24V349.58H138.64V345.72H128.24V337.79H139.51V337.78ZM111.78 343.92C111.78 347.11 109.63 348.42 106.04 348.42H102.69V337.74H106.63C109.78 337.74 111.77 339.09 111.77 342.12V343.91L111.78 343.92ZM106.88 333.92H97.6799V361.81H102.7V352.25H106.21C112.58 352.25 116.81 349.3 116.81 344.2V341.89C116.81 336.75 112.91 333.92 106.89 333.92H106.88ZM79.8299 362.33C86.0799 362.33 90.4699 359.18 90.4699 354.48V353.4C90.4699 349.14 87.5599 347.11 83.7399 345.91L80.0299 344.71C76.8399 343.71 75.5699 342.56 75.5699 341.16V340.48C75.5699 338.93 77.0799 337.21 80.7099 337.21C83.4999 337.21 85.2899 337.85 87.8399 339.76L90.3099 337.01C87.7999 334.7 84.7299 333.38 80.5099 333.38C74.1399 333.38 70.5499 336.73 70.5499 340.51V341.43C70.5499 344.5 72.4199 346.97 77.1199 348.48L81.2199 349.83C84.5299 350.91 85.4799 351.9 85.4799 353.89V354.41C85.4799 356.28 83.6899 358.31 79.5799 358.31C75.7899 358.31 74.2399 357.23 71.8899 355.68L69.3799 358.67C71.5699 360.7 74.7599 362.3 79.8199 362.3L79.8299 362.33Z" fill="white"/>
</svg>
