<?xml version="1.0" encoding="UTF-8"?><svg id="Outlined" xmlns="http://www.w3.org/2000/svg" viewBox="0 0 1200 1200"><defs><style>.cls-1-gold{fill:#fff;}.cls-2-gold{fill:none;stroke:#fff;stroke-miterlimit:10;stroke-width:7px;}.cls-3-gold{fill:#666;}</style></defs>
<g class="toplevel" transform="scale(1.15) translate(-100 -85)">
<path d="m106.59,904.95v-112.36h986.82v112.36c0,30.71-19.75,57.93-48.93,67.49l-418.26,136.83-4.15,1.36c-14.34,4.7-29.81,4.7-44.15,0l-4.15-1.36-418.26-136.83c-29.19-9.55-48.93-36.78-48.93-67.49Z"/><path class="cls-3-gold" d="m1093.41,777.11H106.59V156.86c0-39.22,31.79-71,71-71h844.81c39.22,0,71,31.79,71,71v620.25Z"/><line class="cls-2-gold" x1="253.89" y1="318.82" x2="946.11" y2="318.82"/><g id="logo"><g id="wordmark"><polygon class="cls-1-gold" points="892.99 192.01 875.64 192.01 854.87 215.22 854.87 192.01 840.3 192.01 840.37 249.13 854.87 249.13 854.87 227.43 874.57 249.13 892.99 249.13 866.43 220.93 892.99 192.01"/><path class="cls-1-gold" d="m816.81,215.5l-13.28-1.5c-7.78-.86-9.71-2.78-9.71-5.43,0-2.93,4-5.57,11.78-5.57s11.42,2.78,12.14,7h14.28c-.71-12.07-10.85-19.56-25.63-19.56-17.56,0-26.42,7-26.42,19.35,0,10.07,5.85,14.78,17.99,16.06l13.49,1.43c5.14.57,7.5,2.57,7.5,5.14,0,2.93-3.43,5.57-11.71,5.57-9.57,0-13.42-2.43-14.07-7.28h-13.99c.64,13.14,9.21,19.85,27.56,19.85,16.78,0,26.13-7.35,26.13-18.42,0-9.64-5.57-15.42-16.06-16.64Z"/><polygon class="cls-1-gold" points="726.78 249.13 772.76 249.13 772.76 236.78 741.34 236.78 741.34 226.43 766.62 226.43 766.62 214 741.34 214 741.34 204.36 772.76 204.36 772.76 192.01 726.78 192.01 726.78 249.13"/><path class="cls-1-gold" d="m692.51,192.01h-26.7v57.12h26.7c20.49,0,26.13-7.64,26.13-28.99,0-20.06-5.43-28.13-26.13-28.13Zm-.57,44.77h-11.57v-32.42h11.57c9.14,0,11.85,2.5,11.85,15.78,0,12.14-3.07,16.64-11.85,16.64Z"/><path class="cls-1-gold" d="m626.25,190.44c-20.78,0-31.56,12.78-31.56,29.99s10.78,30.13,31.56,30.13,31.63-12.85,31.63-30.13-10.78-29.99-31.63-29.99Zm0,47.27c-10.78,0-16.71-6.57-16.71-17.28s5.93-17.14,16.71-17.14,16.71,6.64,16.71,17.14-5.85,17.28-16.71,17.28Z"/><polygon class="cls-1-gold" points="541 204.36 559.42 204.36 559.42 249.13 573.98 249.13 573.98 204.36 592.33 204.36 592.33 192.01 541 192.01 541 204.36"/><path class="cls-1-gold" d="m519.79,227.28c0,7.43-4.57,10.42-12.35,10.42s-12.49-3.14-12.49-10.42v-35.27h-14.57v36.91c0,16.49,14.71,21.63,27.06,21.63s26.92-5.14,26.92-21.63v-36.91h-14.57v35.27Z"/><path class="cls-1-gold" d="m437.75,192.01l-21.92,57.12h15.07l3.83-10.71h24.47l3.76,10.71h15.57l-22.21-57.12h-18.56Zm1.31,34.27l8-22.39,7.87,22.39h-15.87Z"/></g><path id="symbol" class="cls-1-gold" d="m307.45,249.14l51.15-31.82h26.53c.82,0,1.55.65,1.55,1.55,0,.73-.33,1.06-.73,1.31l-25.12,15.06c-1.63.98-2.2,2.94-2.2,4.41l-.03,9.49h31.92v-55.16c0-1.06-.82-1.96-2.04-1.96h-30.45l-51.02,31.68v25.45h.45Z"/></g><path class="cls-1-gold" d="m537.67,548.21v34.83h-8.91l-.99-5.4c-3.87,3.78-9.36,6.57-16.56,6.57-12.15,0-21.69-8.1-21.69-22.23v-17.55c0-15.48,9.54-25.56,25.74-25.56,10.44,0,17.1,3.78,21.78,9.9l-7.38,5.22c-3.51-4.32-7.47-6.39-14.13-6.39-9.9,0-14.67,5.94-14.67,16.29v17.82c0,8.55,4.32,13.77,12.78,13.77,5.94,0,10.26-2.61,13.05-6.57v-12.24h-13.32v-8.46h24.3Z"/><path class="cls-1-gold" d="m601.66,544.52v14.13c0,14.67-8.55,25.56-25.92,25.56s-25.83-10.89-25.83-25.56v-14.13c0-14.85,8.55-25.65,25.83-25.65s25.92,10.8,25.92,25.65Zm-40.41-.09v14.4c0,9.9,4.59,16.65,14.49,16.65s14.49-6.75,14.49-16.65v-14.4c0-10.17-4.68-16.83-14.49-16.83s-14.49,6.66-14.49,16.83Z"/><path class="cls-1-gold" d="m653.86,573.86v9.18h-36.9v-63h11.34v53.82h25.56Z"/><path class="cls-1-gold" d="m710.47,545.24v11.16c0,16.38-9.72,26.64-27.9,26.64h-18.36v-63h20.61c17.1,0,25.65,10.08,25.65,25.2Zm-11.34-.27c0-10.26-4.86-16.2-14.85-16.2h-8.73v45.54h7.11c10.98,0,16.47-5.76,16.47-17.73v-11.61Z"/><path class="cls-1-gold" d="m193.88,921.86l5.04-6c4.72,3.12,7.84,5.28,15.44,5.28,8.24,0,11.84-4.08,11.84-7.84v-1.04c0-4-1.92-6-8.56-8.16l-8.24-2.72c-9.44-3.04-13.2-8-13.2-14.16v-1.84c0-7.6,7.2-14.32,20-14.32,8.48,0,14.64,2.64,19.68,7.28l-4.96,5.52c-5.12-3.84-8.72-5.12-14.32-5.12-7.28,0-10.32,3.44-10.32,6.56v1.36c0,2.8,2.56,5.12,8.96,7.12l7.44,2.4c7.68,2.4,13.52,6.48,13.52,15.04v2.16c0,9.44-8.8,15.76-21.36,15.76-10.16,0-16.56-3.2-20.96-7.28Z"/><path class="cls-1-gold" d="m291.96,893.86v12.56c0,13.04-7.6,22.72-23.04,22.72s-22.96-9.68-22.96-22.72v-12.56c0-13.2,7.6-22.8,22.96-22.8s23.04,9.6,23.04,22.8Zm-35.92-.08v12.8c0,8.8,4.08,14.8,12.88,14.8s12.88-6,12.88-14.8v-12.8c0-9.04-4.16-14.96-12.88-14.96s-12.88,5.92-12.88,14.96Z"/><path class="cls-1-gold" d="m338.36,919.94v8.16h-32.8v-56h10.08v47.84h22.72Z"/><path class="cls-1-gold" d="m388.2,910.02c0,10.88-6.88,19.12-21.6,19.12s-21.6-8.24-21.6-19.12v-37.92h10.16v37.92c0,6.8,3.28,11.36,11.44,11.36s11.52-4.56,11.52-11.36v-37.92h10.08v37.92Z"/><path class="cls-1-gold" d="m437.56,879.85h-15.68v48.24h-10.08v-48.24h-15.76v-7.76h41.52v7.76Z"/><path class="cls-1-gold" d="m461.56,879.85v40.48h7.2v7.76h-24.48v-7.76h7.2v-40.48h-7.2v-7.76h24.48v7.76h-7.2Z"/><path class="cls-1-gold" d="m525.56,893.86v12.56c0,13.04-7.6,22.72-23.04,22.72s-22.96-9.68-22.96-22.72v-12.56c0-13.2,7.6-22.8,22.96-22.8s23.04,9.6,23.04,22.8Zm-35.92-.08v12.8c0,8.8,4.08,14.8,12.88,14.8s12.88-6,12.88-14.8v-12.8c0-9.04-4.16-14.96-12.88-14.96s-12.88,5.92-12.88,14.96Z"/><path class="cls-1-gold" d="m581.72,872.09v56h-11.68l-22-43.36v43.36h-8.88v-56h12.08l21.52,42v-42h8.96Z"/><path class="cls-1-gold" d="m657.48,888.09v4.64c0,10.24-8.48,16.16-21.28,16.16h-7.04v19.2h-10.08v-56h18.48c12.08,0,19.92,5.68,19.92,16Zm-10.08.48c0-6.08-4-8.8-10.32-8.8h-7.92v21.44h6.72c7.2,0,11.52-2.64,11.52-9.04v-3.6Z"/><path class="cls-1-gold" d="m687.24,905.94h-8.4v22.16h-10.08v-56h18.88c11.76,0,19.6,5.6,19.6,14.8v4.16c0,6.24-3.92,10.72-10.16,13.12l12.88,23.92h-11.04l-11.68-22.16Zm-8.4-7.52h8.48c6,0,9.76-2.72,9.76-7.6v-3.44c0-5.04-3.84-7.68-9.84-7.68h-8.4v18.72Z"/><path class="cls-1-gold" d="m763.88,893.86v12.56c0,13.04-7.6,22.72-23.04,22.72s-22.96-9.68-22.96-22.72v-12.56c0-13.2,7.6-22.8,22.96-22.8s23.04,9.6,23.04,22.8Zm-35.92-.08v12.8c0,8.8,4.08,14.8,12.88,14.8s12.88-6,12.88-14.8v-12.8c0-9.04-4.16-14.96-12.88-14.96s-12.88,5.92-12.88,14.96Z"/><path class="cls-1-gold" d="m769.48,872.09h10.48l14.08,47.68,13.12-47.68h10.32l-16.64,56h-13.76l-17.6-56Z"/><path class="cls-1-gold" d="m841.56,879.85v40.48h7.2v7.76h-24.48v-7.76h7.2v-40.48h-7.2v-7.76h24.48v7.76h-7.2Z"/><path class="cls-1-gold" d="m903.8,894.5v9.92c0,14.56-8.64,23.68-24.8,23.68h-16.32v-56h18.32c15.2,0,22.8,8.96,22.8,22.4Zm-10.08-.24c0-9.12-4.32-14.4-13.2-14.4h-7.76v40.48h6.32c9.76,0,14.64-5.12,14.64-15.76v-10.32Z"/><path class="cls-1-gold" d="m927.56,879.85v15.92h20.88v7.76h-20.88v16.72h22.64v7.84h-32.72v-56h32.72v7.76h-22.64Z"/><path class="cls-1-gold" d="m982.52,905.94h-8.4v22.16h-10.08v-56h18.88c11.76,0,19.6,5.6,19.6,14.8v4.16c0,6.24-3.92,10.72-10.16,13.12l12.88,23.92h-11.04l-11.68-22.16Zm-8.4-7.52h8.48c6,0,9.76-2.72,9.76-7.6v-3.44c0-5.04-3.84-7.68-9.84-7.68h-8.4v18.72Z"/>
</g>
</svg>
