<svg width="1200" height="1200" viewBox="0 0 1200 1200" fill="none" xmlns="http://www.w3.org/2000/svg">
<path d="M7.58133 942.94V813.726H1142.42V942.94C1142.42 978.256 1119.71 1009.56 1086.15 1020.55L605.153 1177.91L600.381 1179.47C583.89 1184.88 566.1 1184.88 549.609 1179.47L544.836 1177.91L63.8391 1020.55C30.2707 1009.57 7.56982 978.256 7.56982 942.94H7.58133Z" fill="black"/>
<path d="M1142.42 795.924H7.58179V82.6397C7.58179 37.5368 44.1401 0.98999 89.2315 0.98999H1060.76C1105.86 0.98999 1142.41 37.5483 1142.41 82.6397V795.924H1142.42Z" fill="#666666"/>
<path d="M176.976 272.918H973.014V264.868H176.976" fill="white"/>
<path d="M911.938 123.062H891.986L868.1 149.753V123.062H851.333L851.425 188.75H868.1V163.795L890.744 188.75H911.938L881.394 156.32L911.938 123.062Z" fill="white"/>
<path d="M824.319 150.075L809.047 148.35C800.1 147.361 797.881 145.154 797.881 142.106C797.881 138.737 802.481 135.701 811.428 135.701C820.375 135.701 824.561 138.898 825.389 143.75H841.811C840.994 129.87 829.333 121.257 812.336 121.257C792.142 121.257 781.953 129.307 781.953 143.509C781.953 155.089 788.681 160.506 802.642 161.978L818.155 163.622C824.066 164.278 826.78 166.578 826.78 169.533C826.78 172.903 822.836 175.939 813.314 175.939C802.308 175.939 797.881 173.144 797.133 167.567H781.045C781.781 182.678 791.636 190.394 812.739 190.394C832.036 190.394 842.788 181.942 842.788 169.211C842.788 158.125 836.383 151.478 824.319 150.075Z" fill="white"/>
<path d="M720.797 188.75H773.674V174.547H737.529V162.645H766.601V148.35H737.529V137.264H773.674V123.062H720.797V188.75Z" fill="white"/>
<path d="M681.387 123.062H650.682V188.75H681.387C704.95 188.75 711.436 179.964 711.436 155.411C711.436 132.342 705.191 123.062 681.387 123.062ZM680.731 174.547H667.426V137.264H680.731C691.242 137.264 694.358 140.139 694.358 155.411C694.358 169.372 690.828 174.547 680.731 174.547Z" fill="white"/>
<path d="M605.188 121.257C581.291 121.257 568.894 135.954 568.894 155.745C568.894 175.536 581.291 190.394 605.188 190.394C629.085 190.394 641.562 175.617 641.562 155.745C641.562 135.873 629.166 121.257 605.188 121.257ZM605.188 175.617C592.791 175.617 585.972 168.061 585.972 155.745C585.972 143.428 592.791 136.034 605.188 136.034C617.585 136.034 624.405 143.67 624.405 155.745C624.405 167.82 617.677 175.617 605.188 175.617Z" fill="white"/>
<path d="M507.151 137.264H528.334V188.75H545.066V137.264H566.18V123.062H507.151V137.264Z" fill="white"/>
<path d="M482.76 163.622C482.76 172.167 477.504 175.605 468.557 175.605C459.61 175.605 454.194 171.994 454.194 163.622V123.062H437.438V165.508C437.438 184.472 454.355 190.383 468.557 190.383C482.76 190.383 499.515 184.472 499.515 165.508V123.062H482.76V163.622Z" fill="white"/>
<path d="M388.414 123.062L363.206 188.75H380.537L384.941 176.433H413.082L417.406 188.75H435.311L409.77 123.062H388.414ZM389.921 162.472L399.121 136.724L408.171 162.472H389.921Z" fill="white"/>
<path d="M238.57 188.761L297.392 152.169H327.901C328.844 152.169 329.684 152.916 329.684 153.951C329.684 154.791 329.304 155.17 328.844 155.458L299.956 172.777C298.082 173.904 297.427 176.158 297.427 177.848L297.392 188.761H334.1V125.328C334.1 124.109 333.157 123.074 331.754 123.074H296.737L238.064 159.506V188.773H238.581H238.57V188.761Z" fill="white"/>
<path d="M269.18 460.139H296.99V500H286.793L285.66 493.82C281.231 498.146 274.948 501.339 266.708 501.339C252.803 501.339 241.885 492.069 241.885 475.898V455.813C241.885 438.097 252.803 426.561 271.343 426.561C283.291 426.561 290.913 430.887 296.269 437.891L287.823 443.865C283.806 438.921 279.274 436.552 271.652 436.552C260.322 436.552 254.863 443.35 254.863 455.195V475.589C254.863 485.374 259.807 491.348 269.489 491.348C276.287 491.348 281.231 488.361 284.424 483.829V469.821H269.18V460.139ZM340.858 426.561C360.737 426.561 370.522 438.921 370.522 455.916V472.087C370.522 488.876 360.737 501.339 340.858 501.339C321.185 501.339 311.297 488.876 311.297 472.087V455.916C311.297 438.921 321.082 426.561 340.858 426.561ZM340.858 436.552C329.631 436.552 324.275 444.174 324.275 455.813V472.293C324.275 483.623 329.528 491.348 340.858 491.348C352.188 491.348 357.441 483.623 357.441 472.293V455.813C357.441 444.174 352.085 436.552 340.858 436.552ZM400.731 500L378.071 427.9H391.564L409.692 489.288L426.584 427.9H439.871L418.447 500H400.731ZM494.755 437.891H465.606V458.388H492.489V468.379H465.606V489.906H494.755V500H453.864H452.628V427.9H465.606H494.755V437.891ZM551.717 500L536.679 471.469H525.864V500H512.886V427.9H525.864H537.194C552.335 427.9 562.429 435.11 562.429 446.955V452.311C562.429 460.345 557.382 466.113 549.348 469.203L565.931 500H551.717ZM525.864 437.685V461.787H536.782C544.507 461.787 549.348 458.285 549.348 452.002V447.573C549.348 441.084 544.404 437.685 536.679 437.685H525.864ZM624.351 427.9H635.887V500H620.849L592.524 444.174V500H581.091V427.9H596.644L624.351 481.975V427.9ZM710.172 427.9H726.137V500H713.674V447.367L698.636 489.597V489.7H684.937L669.487 446.028V500H657.745V427.9H674.534L692.147 478.782L710.172 428.106V427.9ZM790.205 437.891H761.056V458.388H787.939V468.379H761.056V489.906H790.205V500H749.314H748.078V427.9H761.056H790.205V437.891ZM851.596 427.9H863.132V500H848.094L819.769 444.174V500H808.336V427.9H823.889L851.596 481.975V427.9ZM929.074 427.9V437.891H908.886V500H895.908V437.891H875.617V427.9H908.886H929.074ZM364.23 561.891H335.081V582.388H361.964V592.379H335.081V613.906H364.23V624H323.339H322.103V551.9H335.081H364.23V561.891ZM412.335 584.654L436.437 624H421.708L404.198 594.13L386.482 624H372.062L396.061 585.581L374.637 551.9H389.057L404.301 576.929H404.404L419.957 551.9H433.965L412.335 584.654ZM471.845 551.9C487.398 551.9 497.492 559.213 497.492 572.5V578.474C497.492 591.658 486.574 599.28 470.094 599.28H461.03V624H448.052V551.9H461.03H471.845ZM484.514 577.753V573.118C484.514 565.29 479.364 561.788 471.227 561.788H461.03V589.392H469.682C478.952 589.392 484.514 585.993 484.514 577.753ZM554.46 561.891H525.311V582.388H552.194V592.379H525.311V613.906H554.46V624H513.569H512.333V551.9H525.311H554.46V561.891ZM611.422 624L596.384 595.469H585.569V624H572.591V551.9H585.569H596.899C612.04 551.9 622.134 559.11 622.134 570.955V576.311C622.134 584.345 617.087 590.113 609.053 593.203L625.636 624H611.422ZM585.569 561.685V585.787H596.487C604.212 585.787 609.053 582.285 609.053 576.002V571.573C609.053 565.084 604.109 561.685 596.384 561.685H585.569ZM683.371 551.9V561.891H663.183V624H650.205V561.891H629.914V551.9H663.183H683.371ZM723.835 561.891H714.565V614.009H723.835V624H701.587H692.317V614.009H701.587V561.891H692.317V551.9H714.565H723.835V561.891ZM761.155 625.339C748.074 625.339 739.834 621.219 734.169 615.966L740.658 608.241C746.735 612.258 750.752 615.039 760.537 615.039C771.146 615.039 775.781 609.786 775.781 604.945V603.606C775.781 598.456 773.309 595.881 764.76 593.1L754.151 589.598C741.997 585.684 737.156 579.298 737.156 571.367V568.998C737.156 559.213 746.426 550.561 762.906 550.561C773.824 550.561 781.755 553.96 788.244 559.934L781.858 567.041C775.266 562.097 770.631 560.449 763.421 560.449C754.048 560.449 750.134 564.878 750.134 568.895V570.646C750.134 574.251 753.43 577.238 761.67 579.813L771.249 582.903C781.137 585.993 788.656 591.246 788.656 602.267V605.048C788.656 617.202 777.326 625.339 761.155 625.339ZM847.704 561.891H818.555V582.388H845.438V592.379H818.555V613.906H847.704V624H806.813H805.577V551.9H818.555H847.704V561.891Z" fill="white"/>
<path d="M129.769 972.196C118.085 972.196 110.725 968.516 105.665 963.824L111.461 956.924C116.889 960.512 120.477 962.996 129.217 962.996C138.693 962.996 142.833 958.304 142.833 953.98V952.784C142.833 948.184 140.625 945.884 132.989 943.4L123.513 940.272C112.657 936.776 108.333 931.072 108.333 923.988V921.872C108.333 913.132 116.613 905.404 131.333 905.404C141.085 905.404 148.169 908.44 153.965 913.776L148.261 920.124C142.373 915.708 138.233 914.236 131.793 914.236C123.421 914.236 119.925 918.192 119.925 921.78V923.344C119.925 926.564 122.869 929.232 130.229 931.532L138.785 934.292C147.617 937.052 154.333 941.744 154.333 951.588V954.072C154.333 964.928 144.213 972.196 129.769 972.196ZM192.263 905.404C210.019 905.404 218.759 916.444 218.759 931.624V946.068C218.759 961.064 210.019 972.196 192.263 972.196C174.691 972.196 165.859 961.064 165.859 946.068V931.624C165.859 916.444 174.599 905.404 192.263 905.404ZM192.263 914.328C182.235 914.328 177.451 921.136 177.451 931.532V946.252C177.451 956.372 182.143 963.272 192.263 963.272C202.383 963.272 207.075 956.372 207.075 946.252V931.532C207.075 921.136 202.291 914.328 192.263 914.328ZM246.272 961.616H272.4V971H235.048H234.68V906.6H246.272V961.616ZM330.049 906.6V950.208C330.049 962.72 322.137 972.196 305.209 972.196C288.557 972.196 280.369 962.72 280.369 950.208V906.6H292.053V950.208C292.053 958.028 295.825 963.272 305.209 963.272C314.593 963.272 318.457 958.028 318.457 950.208V906.6H330.049ZM387.092 906.6V915.524H369.06V971H357.468V915.524H339.344V906.6H369.06H387.092ZM423.234 915.524H414.954V962.076H423.234V971H403.362H395.082V962.076H403.362V915.524H395.082V906.6H414.954H423.234V915.524ZM462.365 905.404C480.121 905.404 488.861 916.444 488.861 931.624V946.068C488.861 961.064 480.121 972.196 462.365 972.196C444.793 972.196 435.961 961.064 435.961 946.068V931.624C435.961 916.444 444.701 905.404 462.365 905.404ZM462.365 914.328C452.337 914.328 447.553 921.136 447.553 931.532V946.252C447.553 956.372 452.245 963.272 462.365 963.272C472.485 963.272 477.177 956.372 477.177 946.252V931.532C477.177 921.136 472.393 914.328 462.365 914.328ZM543.422 906.6H553.726V971H540.294L514.994 921.136V971H504.782V906.6H518.674L543.422 954.9V906.6ZM618.497 906.6C632.389 906.6 641.405 913.132 641.405 925V930.336C641.405 942.112 631.653 948.92 616.933 948.92H608.837V971H597.245V906.6H608.837H618.497ZM629.813 929.692V925.552C629.813 918.56 625.213 915.432 617.945 915.432H608.837V940.088H616.565C624.845 940.088 629.813 937.052 629.813 929.692ZM689.345 971L675.913 945.516H666.253V971H654.661V906.6H666.253H676.373C689.897 906.6 698.913 913.04 698.913 923.62V928.404C698.913 935.58 694.405 940.732 687.229 943.492L702.041 971H689.345ZM666.253 915.34V936.868H676.005C682.905 936.868 687.229 933.74 687.229 928.128V924.172C687.229 918.376 682.813 915.34 675.913 915.34H666.253ZM737.859 905.404C755.615 905.404 764.355 916.444 764.355 931.624V946.068C764.355 961.064 755.615 972.196 737.859 972.196C720.287 972.196 711.455 961.064 711.455 946.068V931.624C711.455 916.444 720.195 905.404 737.859 905.404ZM737.859 914.328C727.831 914.328 723.047 921.136 723.047 931.532V946.252C723.047 956.372 727.739 963.272 737.859 963.272C747.979 963.272 752.671 956.372 752.671 946.252V931.532C752.671 921.136 747.887 914.328 737.859 914.328ZM791.337 971L771.097 906.6H783.149L799.341 961.432L814.429 906.6H826.297L807.161 971H791.337ZM862.532 915.524H854.252V962.076H862.532V971H842.66H834.38V962.076H842.66V915.524H834.38V906.6H854.252H862.532V915.524ZM899.915 906.6C917.395 906.6 926.135 916.904 926.135 932.36V943.768C926.135 960.512 916.199 971 897.615 971H886.667H878.847V906.6H890.439H899.915ZM914.543 943.952V932.084C914.543 921.596 909.575 915.524 899.363 915.524H890.439V962.076H897.707C908.931 962.076 914.543 956.188 914.543 943.952ZM979.732 915.524H953.696V933.832H977.708V942.756H953.696V961.984H979.732V971H943.208H942.104V906.6H953.696H979.732V915.524ZM1030.61 971L1017.18 945.516H1007.52V971H995.927V906.6H1007.52H1017.64C1031.16 906.6 1040.18 913.04 1040.18 923.62V928.404C1040.18 935.58 1035.67 940.732 1028.49 943.492L1043.31 971H1030.61ZM1007.52 915.34V936.868H1017.27C1024.17 936.868 1028.49 933.74 1028.49 928.128V924.172C1028.49 918.376 1024.08 915.34 1017.18 915.34H1007.52Z" fill="white"/>
</svg>
